<?xml version="1.0" standalone="no"?>
<!DOCTYPE svg PUBLIC "-//W3C//DTD SVG 20010904//EN"
 "http://www.w3.org/TR/2001/REC-SVG-20010904/DTD/svg10.dtd">
<svg version="1.0" xmlns="http://www.w3.org/2000/svg"
 width="260.000000pt" height="260.000000pt" viewBox="0 0 260.000000 260.000000"
 preserveAspectRatio="xMidYMid meet">
<metadata>
Created by potrace 1.14, written by Peter Selinger 2001-2017
</metadata>
<g transform="translate(0.000000,260.000000) scale(0.100000,-0.100000)"
fill="#000000" stroke="none">
<path d="M996 2588 c3 -5 10 -6 15 -3 16 11 10 0 -13 -19 -19 -17 -21 -17 -14
-1 5 14 4 16 -7 7 -8 -7 -16 -9 -19 -6 -3 3 -9 0 -14 -7 -4 -7 -3 -10 4 -5 6
3 13 2 17 -3 6 -10 -40 -5 -59 6 -6 4 -5 0 2 -9 11 -13 10 -16 -5 -14 -10 0
-21 6 -25 11 -4 6 -8 1 -8 -9 0 -19 0 -19 -22 0 -12 10 -18 14 -15 7 4 -6 3
-14 -3 -18 -6 -4 -7 -12 -3 -18 4 -8 1 -7 -9 1 -13 10 -18 10 -24 1 -4 -8 -3
-9 4 -5 7 4 12 2 12 -5 0 -7 -10 -9 -30 -6 -23 5 -28 3 -24 -8 4 -10 0 -13
-15 -10 -12 2 -21 0 -21 -6 0 -5 -6 -9 -14 -9 -8 0 -17 -7 -20 -16 -4 -9 -13
-14 -21 -10 -8 3 -15 1 -15 -4 0 -6 -5 -10 -11 -10 -5 0 -7 5 -3 12 4 7 3 8
-5 4 -6 -4 -9 -11 -6 -16 3 -4 -8 -16 -23 -25 l-27 -18 20 24 20 24 -27 -24
c-15 -13 -24 -29 -21 -35 4 -6 -2 -4 -12 4 -11 9 -16 10 -11 3 4 -8 2 -13 -4
-13 -6 0 -9 -4 -6 -9 4 -5 -2 -7 -12 -4 -10 2 -25 -3 -33 -13 -13 -16 -12 -16
11 -5 24 11 24 11 6 -3 -11 -9 -26 -16 -34 -16 -7 0 -11 -4 -8 -9 3 -5 -1 -12
-10 -15 -10 -4 -13 -1 -9 7 3 6 -2 2 -12 -11 -10 -12 -31 -37 -48 -55 -16 -18
-24 -25 -17 -16 10 13 11 19 1 25 -7 4 -10 3 -6 -3 4 -6 0 -16 -8 -23 -8 -7
-15 -19 -15 -27 0 -23 -29 -46 -47 -38 -10 3 -14 3 -10 -1 4 -4 -1 -17 -10
-28 l-18 -21 25 20 25 20 -24 -27 c-13 -15 -27 -25 -32 -23 -4 3 -11 0 -15 -6
-4 -8 -3 -9 4 -5 7 4 12 2 12 -3 0 -6 -5 -11 -12 -11 -6 0 -8 -3 -5 -7 4 -3
-1 -12 -11 -19 -9 -7 -17 -17 -17 -23 0 -5 -9 -17 -20 -26 -11 -9 -13 -14 -5
-10 12 5 12 4 -1 -7 -9 -7 -14 -19 -12 -25 3 -7 -1 -13 -7 -13 -7 0 -10 -6 -7
-14 4 -10 0 -14 -12 -11 -10 2 -18 -3 -18 -10 0 -8 4 -12 9 -9 13 9 9 -4 -8
-20 -9 -9 -11 -16 -4 -16 6 0 9 -4 5 -9 -3 -5 -1 -12 4 -16 6 -3 8 -13 5 -23
-4 -10 -2 -13 3 -7 4 6 15 10 23 10 8 0 18 -4 22 -10 5 -6 8 -5 8 4 0 7 6 11
15 8 8 -4 17 -1 21 5 5 7 2 8 -7 4 -8 -4 -6 -1 4 7 10 8 23 31 28 51 6 20 14
34 20 31 8 -6 13 9 10 29 -1 5 4 4 11 -2 11 -8 14 -7 14 8 0 10 -5 16 -10 13
-5 -4 -6 -1 -2 6 5 7 14 10 22 7 8 -3 11 0 7 10 -3 7 0 14 6 14 6 0 11 7 11
15 0 8 8 15 18 16 11 0 12 2 4 6 -9 3 -5 12 13 29 15 13 31 22 36 19 5 -3 6 2
2 11 -4 11 -2 15 4 11 11 -7 28 20 24 37 -1 5 8 6 20 3 11 -3 18 -3 15 0 -9
10 15 33 27 26 6 -4 7 -1 3 6 -6 9 -12 9 -25 -3 -10 -9 -21 -16 -25 -16 -5 0
2 8 15 19 13 10 30 16 38 13 9 -3 12 -1 7 6 -7 12 28 35 38 24 4 -3 4 2 0 11
-4 12 -2 17 7 15 8 -2 13 2 12 8 -2 8 6 10 20 6 20 -5 21 -4 8 11 -12 15 -12
17 3 11 9 -3 16 -1 16 5 0 6 7 11 16 11 9 0 12 5 8 13 -5 7 0 6 11 -3 11 -9
16 -10 11 -2 -4 7 -2 12 7 12 8 0 17 7 21 15 3 8 10 15 16 15 6 0 8 -6 4 -12
-4 -7 8 1 26 17 18 17 30 24 26 18 -5 -9 -2 -11 8 -7 9 3 14 10 11 14 -3 4 2
11 11 14 8 3 12 2 9 -4 -3 -6 1 -7 10 -4 9 4 13 9 11 12 -3 3 -1 11 5 18 8 10
16 11 30 3 11 -5 19 -6 18 -2 -4 22 3 25 16 7 15 -19 15 -19 8 1 -3 11 -3 17
2 13 4 -4 15 -2 23 5 13 10 15 9 8 -3 -6 -12 -5 -12 6 1 18 21 44 29 56 17 6
-6 12 -6 17 3 6 8 4 10 -5 4 -8 -5 -11 -4 -7 2 4 6 16 13 27 16 18 4 19 3 9
-9 -10 -12 -9 -13 5 -8 9 3 16 10 16 15 0 5 12 4 26 -1 18 -7 23 -7 18 2 -5 8
0 9 14 6 12 -4 22 -1 22 4 0 6 6 5 15 -2 11 -9 15 -10 15 -1 0 8 8 10 21 6 15
-5 19 -4 15 4 -10 16 0 13 18 -5 10 -10 16 -11 16 -4 0 8 9 10 26 6 19 -5 24
-4 18 6 -5 8 -1 8 11 -2 11 -9 16 -10 11 -2 -5 8 -1 12 11 13 11 0 13 3 5 6
-8 3 -5 11 10 25 13 11 18 17 11 14 -6 -4 -14 -2 -17 3 -3 5 1 12 10 15 14 5
14 9 3 22 -11 13 -39 15 -180 13 -93 -1 -166 -6 -163 -11z m68 -10 c-4 -5 -9
-7 -12 -4 -3 3 -12 0 -21 -7 -14 -10 -14 -10 -4 4 13 16 46 23 37 7z m-324
-224 c0 -8 -19 -13 -24 -6 -3 5 1 9 9 9 8 0 15 -2 15 -3z"/>
<path d="M1456 2591 c-3 -4 -3 -19 -2 -34 2 -15 -1 -27 -5 -27 -5 0 -9 -5 -9
-11 0 -5 5 -7 12 -3 7 4 8 3 4 -5 -11 -18 12 -40 36 -36 27 6 69 -5 63 -14 -2
-4 2 -8 10 -8 8 0 12 4 10 8 -7 10 22 5 32 -6 4 -4 2 -5 -6 0 -10 6 -12 4 -6
-5 6 -10 11 -9 23 6 14 18 14 18 8 1 -4 -13 -2 -17 6 -14 7 2 24 -5 37 -17 19
-17 23 -18 18 -4 -4 12 -2 15 9 11 7 -3 14 -9 14 -15 0 -5 10 -6 21 -3 16 5
19 4 14 -6 -6 -9 -3 -11 9 -6 14 6 17 3 12 -9 -5 -14 -4 -15 9 -4 12 10 15 9
15 -5 0 -12 6 -16 20 -12 11 3 18 2 15 -3 -6 -10 24 -22 36 -14 5 3 9 0 9 -6
0 -7 7 -9 17 -6 10 4 14 4 11 0 -10 -9 20 -37 31 -29 5 3 13 0 17 -6 5 -8 3
-9 -6 -4 -9 6 -11 4 -6 -4 5 -7 14 -10 22 -7 9 3 14 -1 14 -12 0 -15 2 -15 10
-2 8 13 10 13 10 -1 0 -9 11 -21 25 -27 14 -7 28 -19 31 -27 4 -8 13 -15 21
-15 8 0 11 -5 7 -12 -5 -7 -2 -9 8 -6 8 4 22 -2 31 -13 9 -10 13 -19 7 -19 -5
0 -14 8 -19 18 -6 9 -11 12 -11 7 0 -16 22 -35 41 -35 10 0 21 -5 25 -12 5 -7
3 -8 -7 -3 -12 8 -12 6 0 -8 7 -9 17 -14 22 -11 5 3 6 -2 3 -11 -4 -10 -2 -15
6 -13 6 2 17 -6 23 -17 7 -11 20 -27 30 -36 9 -9 17 -21 17 -27 0 -6 9 -16 20
-22 11 -6 20 -17 20 -25 0 -8 5 -15 10 -15 6 0 10 -9 10 -20 0 -11 5 -20 10
-20 6 0 10 -7 10 -15 0 -9 7 -18 15 -21 8 -4 15 -10 15 -16 0 -5 -6 -6 -12 -2
-7 4 -5 -2 5 -13 9 -11 17 -27 17 -36 0 -9 5 -17 11 -17 5 0 7 5 3 12 -4 7 -3
8 5 4 6 -4 9 -12 6 -17 -10 -15 5 -50 17 -43 8 5 9 1 5 -11 -4 -9 -2 -24 4
-31 6 -8 9 -14 6 -14 -3 0 -1 -13 4 -30 6 -16 15 -27 20 -24 5 3 6 -2 3 -10
-3 -9 -11 -13 -18 -10 -6 3 -1 -3 11 -14 15 -13 19 -22 12 -29 -7 -7 -7 -13 2
-18 8 -6 10 -4 4 5 -5 8 -4 11 2 7 5 -3 8 -20 7 -36 -1 -17 2 -34 7 -37 5 -3
9 -11 9 -17 0 -7 -4 -6 -10 3 -6 9 -10 10 -10 3 0 -6 5 -15 10 -18 8 -5 7 -11
-1 -21 -9 -11 -9 -14 0 -14 7 0 10 -4 7 -9 -4 -5 0 -12 6 -14 7 -3 4 -6 -6 -6
-20 -1 -20 -1 0 -16 13 -10 15 -14 5 -15 -11 0 -9 -5 5 -22 19 -21 19 -21 0
-14 -19 7 -19 6 -2 -13 10 -11 24 -18 30 -14 6 4 5 -1 -3 -10 -12 -16 -12 -17
5 -10 10 3 22 11 25 16 4 5 10 0 14 -13 l7 -22 14 21 c12 16 15 50 13 146 -1
69 -6 125 -11 125 -4 0 -8 -5 -8 -12 0 -6 -3 -8 -7 -4 -5 4 -1 13 7 19 16 12
20 35 8 40 -3 1 -10 -2 -15 -7 -5 -6 -2 -6 7 -1 13 8 13 7 1 -8 -7 -9 -19 -17
-25 -17 -7 0 -7 3 -1 8 13 9 18 32 7 32 -5 0 -9 7 -9 15 0 8 5 15 11 15 6 0 4
4 -4 9 -8 6 -18 7 -23 4 -5 -3 -4 4 2 15 13 25 14 35 3 28 -5 -3 -9 1 -9 9 0
8 3 12 7 10 4 -2 7 2 7 10 0 8 -4 12 -9 9 -4 -3 -8 2 -8 11 0 10 -5 13 -12 9
-10 -6 -10 -5 0 8 10 12 9 18 -3 28 -8 7 -12 17 -8 23 3 5 1 7 -4 4 -6 -4 -14
0 -17 9 -4 10 -2 13 7 9 6 -4 3 1 -7 9 -12 9 -14 16 -7 16 9 0 8 5 -3 16 -9 8
-13 20 -10 26 5 7 2 8 -6 3 -10 -6 -12 -4 -7 8 4 10 2 16 -6 14 -7 -1 -12 8
-11 20 0 12 -4 21 -10 20 -6 -1 -11 6 -11 15 0 9 -4 20 -9 25 -5 5 -6 2 -1 -6
5 -9 4 -12 -3 -7 -7 4 -12 12 -12 17 0 16 -27 39 -36 31 -5 -4 -3 1 4 10 11
14 10 19 -12 33 -14 10 -24 21 -21 25 3 4 -2 13 -10 20 -13 11 -14 10 -9 -6 9
-24 0 -16 -16 15 -10 19 -10 22 2 16 7 -4 2 3 -12 14 -14 11 -29 21 -34 21 -5
0 -7 3 -3 6 9 9 -19 34 -37 34 -9 0 -16 9 -16 21 0 11 -3 18 -7 16 -11 -7 -33
19 -25 29 4 5 -2 2 -12 -6 -13 -10 -17 -10 -12 -2 4 7 0 19 -8 28 -12 12 -16
12 -16 2 -1 -7 -8 -1 -16 15 -14 26 -32 40 -19 15 4 -7 -3 -2 -15 12 -12 14
-18 18 -14 10 6 -12 5 -13 -8 -3 -8 7 -19 9 -24 5 -4 -4 -2 1 5 11 8 9 11 20
7 24 -3 3 -6 1 -6 -5 0 -7 -5 -12 -11 -12 -6 0 -8 7 -5 16 6 15 4 15 -11 3 -9
-8 -14 -9 -10 -2 4 6 3 14 -3 18 -5 3 -10 1 -10 -4 0 -18 -14 -13 -47 18 -18
16 -34 26 -37 23 -3 -3 -6 0 -6 6 0 6 -7 9 -17 5 -11 -4 -14 -3 -9 5 5 8 -3
12 -24 12 -20 0 -29 4 -24 11 4 8 0 9 -15 4 -12 -3 -21 -3 -20 2 4 24 -1 37
-12 26 -12 -12 -49 -6 -49 8 0 5 -5 9 -11 9 -5 0 -7 -4 -4 -10 3 -5 0 -7 -9
-4 -8 3 -17 13 -19 22 -4 15 -5 15 -6 0 -1 -17 -2 -17 -20 -1 -11 9 -17 21
-14 26 3 6 1 7 -5 3 -6 -4 -9 -13 -6 -20 3 -8 1 -17 -5 -21 -6 -3 -9 0 -5 8 3
8 -2 14 -11 15 -8 1 -22 3 -30 4 -8 1 -12 5 -9 10 3 4 13 4 24 -2 13 -7 19 -6
23 3 7 18 -51 16 -64 -3 -9 -13 -10 -12 -6 2 5 14 -1 17 -34 16 -21 0 -41 -3
-43 -7z m1059 -811 c3 -5 1 -10 -4 -10 -6 0 -11 5 -11 10 0 6 2 10 4 10 3 0 8
-4 11 -10z"/>
<path d="M1635 2430 c-3 -5 -1 -10 4 -10 6 0 11 5 11 10 0 6 -2 10 -4 10 -3 0
-8 -4 -11 -10z"/>
<path d="M1375 2411 c6 -11 4 -13 -9 -8 -9 4 -15 3 -11 -2 6 -11 -15 -20 -32
-13 -7 2 -11 8 -8 12 7 11 -22 6 -32 -5 -4 -4 -2 -5 6 0 10 6 12 4 6 -5 -6
-10 -11 -9 -22 5 -11 17 -17 14 -15 -6 1 -4 -7 -5 -18 -2 -11 3 -17 10 -13 17
4 6 -1 5 -10 -2 -9 -8 -22 -10 -28 -6 -8 5 -10 2 -7 -7 4 -10 -1 -15 -15 -17
-17 -1 -18 1 -7 8 8 5 12 12 8 15 -3 3 -13 -1 -22 -10 -9 -9 -16 -12 -16 -6 0
6 -5 11 -11 11 -5 0 -7 -4 -4 -10 9 -14 -9 -12 -24 3 -10 10 -11 9 -5 -6 5
-13 2 -16 -12 -10 -13 5 -15 3 -9 -8 8 -12 6 -12 -8 0 -14 11 -17 11 -17 0 0
-11 -2 -11 -10 1 -7 11 -10 11 -10 2 0 -9 -5 -10 -19 -2 -14 7 -22 7 -27 -2
-4 -6 -3 -8 4 -4 6 3 13 2 16 -3 7 -11 -13 -9 -33 3 -9 6 -12 5 -8 -1 4 -6 -1
-17 -10 -24 -14 -12 -16 -12 -9 0 6 9 5 12 -5 9 -8 -3 -13 -11 -11 -18 2 -10
-1 -10 -14 1 -15 12 -17 12 -9 0 6 -11 4 -13 -8 -8 -9 3 -19 1 -23 -5 -5 -7
-2 -8 6 -3 9 5 11 4 6 -3 -4 -7 -13 -12 -21 -12 -7 0 -16 -7 -19 -16 -3 -9 -2
-12 5 -9 6 4 10 1 8 -6 -3 -26 1 -40 10 -35 5 3 11 -3 14 -14 5 -21 27 -28 27
-9 0 6 7 8 16 5 11 -4 15 -2 11 7 -3 8 1 14 9 14 7 0 10 -5 7 -11 -4 -6 4 -2
17 9 13 11 20 14 16 8 -4 -7 -2 -13 3 -13 6 0 11 8 11 17 0 13 3 14 11 6 13
-13 42 -6 33 8 -3 5 -2 9 3 8 4 -1 11 0 16 1 19 6 33 5 39 -5 5 -6 8 -6 8 3 0
7 13 12 31 12 21 0 28 4 23 13 -6 10 -4 10 7 0 7 -7 17 -13 22 -13 4 0 5 6 1
13 -5 8 -2 8 9 -2 11 -9 17 -10 17 -2 0 6 5 11 11 11 5 0 7 -6 3 -12 -6 -10
-5 -10 7 -2 19 15 70 15 63 0 -3 -6 1 -4 8 6 10 12 19 13 31 7 9 -6 17 -7 17
-3 0 3 7 1 15 -6 12 -10 18 -10 30 0 14 11 19 7 16 -12 0 -5 4 -8 9 -8 10 0
14 15 11 34 -1 5 5 4 13 -4 19 -15 21 -24 4 -14 -7 4 -9 3 -5 -1 9 -10 33 -16
60 -16 9 0 16 -3 13 -7 -2 -4 6 -7 19 -7 14 0 21 4 17 10 -4 6 1 2 11 -8 12
-13 17 -15 17 -6 0 11 2 11 10 -1 5 -8 10 -11 10 -6 0 5 7 2 16 -5 19 -15 47
-21 38 -8 -3 5 0 9 5 9 6 0 11 -7 11 -16 0 -8 5 -12 10 -9 6 3 10 1 10 -5 0
-7 7 -10 15 -7 8 4 17 2 20 -3 3 -5 14 -7 24 -5 15 3 19 -1 16 -17 -4 -17 -2
-18 12 -6 14 11 16 11 8 -1 -6 -11 -4 -13 9 -8 9 4 15 3 12 -2 -3 -5 2 -15 11
-22 14 -12 16 -12 9 1 -4 8 1 5 12 -7 11 -12 22 -19 26 -16 3 4 6 1 6 -6 0 -7
5 -9 12 -5 7 5 9 2 5 -9 -4 -12 -2 -14 10 -10 11 4 14 2 9 -5 -4 -7 -1 -12 8
-12 9 0 16 -7 16 -15 0 -8 3 -14 8 -14 22 4 42 -2 37 -11 -3 -5 -1 -10 5 -10
6 0 8 -5 4 -12 -5 -7 -2 -9 7 -6 8 3 21 -2 29 -10 13 -14 12 -15 -5 -8 -19 7
-19 7 0 -12 11 -11 23 -18 26 -16 9 5 20 -26 14 -36 -3 -4 5 -6 17 -3 19 4 20
3 8 -6 -11 -8 -11 -11 -2 -11 7 0 17 -11 22 -25 5 -14 14 -25 19 -25 8 0 24
-37 22 -52 0 -4 5 -5 13 -2 7 3 16 -2 20 -11 3 -9 2 -13 -4 -10 -6 3 -10 1
-10 -4 0 -6 8 -11 18 -11 14 0 15 -2 2 -10 -10 -6 -11 -10 -2 -10 6 0 12 -7
12 -16 0 -9 5 -12 13 -8 9 6 9 5 -1 -8 -10 -13 -9 -18 5 -29 17 -13 17 -13 3
6 -14 19 -14 19 3 6 14 -11 15 -16 5 -29 -11 -13 -11 -14 1 -7 11 6 13 3 9
-13 -4 -14 -2 -20 5 -15 6 4 8 0 4 -10 -4 -10 -1 -17 6 -17 8 0 6 -4 -3 -10
-12 -7 -12 -10 -1 -10 7 0 11 -6 8 -15 -4 -8 -2 -17 4 -20 5 -4 7 -11 4 -16
-4 -5 -1 -9 6 -9 8 0 8 -4 -1 -15 -7 -9 -10 -18 -6 -22 3 -3 6 0 6 8 0 12 2
12 10 -1 5 -9 5 -19 -2 -27 -5 -7 -8 -18 -5 -25 4 -8 6 -7 6 5 1 9 5 17 9 17
11 0 12 -39 1 -45 -5 -4 -3 -13 6 -21 17 -18 20 -38 4 -28 -8 4 -8 0 0 -15 7
-12 9 -26 6 -31 -3 -5 -1 -11 5 -15 5 -3 10 -12 10 -18 0 -7 -4 -6 -10 3 -8
12 -10 11 -10 -7 0 -13 5 -23 11 -23 8 0 8 -5 -1 -15 -10 -12 -10 -15 0 -15 8
0 10 -3 7 -7 -4 -3 -2 -12 4 -19 9 -10 7 -15 -5 -20 -9 -3 -13 -10 -10 -15 3
-5 10 -7 15 -4 5 4 5 -4 -1 -19 -7 -21 -6 -26 5 -26 8 0 15 -4 15 -9 0 -5 7
-12 16 -15 12 -5 14 -3 8 7 -5 7 -2 5 7 -5 15 -16 18 -16 23 -2 4 10 13 14 22
10 8 -3 13 -2 9 3 -3 5 1 12 7 14 10 4 9 8 -2 16 -8 6 -10 11 -4 11 6 0 11 7
11 15 0 8 -4 15 -9 15 -4 0 -8 5 -8 11 0 5 6 7 13 3 9 -5 9 -4 0 6 -8 9 -9 19
-2 32 7 12 6 18 -1 18 -7 0 -7 6 1 21 8 16 8 24 -1 33 -8 8 -10 7 -5 -5 4 -10
3 -19 -2 -22 -4 -3 -9 10 -9 29 -1 18 2 31 7 28 5 -3 6 2 3 10 -3 9 -11 13
-18 9 -6 -4 -5 1 3 10 11 14 11 17 0 17 -11 0 -11 2 1 10 13 8 8 14 -11 12 -6
-1 -6 2 -12 54 -2 17 -7 36 -12 44 -5 9 -4 11 4 6 14 -9 4 41 -13 63 -8 11 -8
13 2 7 6 -4 12 -3 12 3 0 5 -5 13 -10 16 -8 5 -7 12 2 23 10 12 10 14 1 8 -8
-4 -13 -2 -13 4 0 6 -5 8 -11 4 -8 -5 -8 -1 0 14 14 26 14 32 0 32 -5 0 -7 -5
-3 -12 4 -7 3 -8 -4 -4 -6 4 -9 13 -5 21 3 9 -1 15 -8 15 -12 0 -12 2 -1 9 11
7 10 9 -3 15 -9 3 -13 10 -10 16 3 5 1 10 -6 10 -7 0 -9 10 -7 25 4 17 1 25
-8 25 -8 0 -14 5 -14 11 0 5 -4 8 -8 5 -5 -3 -8 8 -7 24 1 16 -2 27 -7 24 -5
-3 -12 3 -15 15 -3 12 -10 18 -17 14 -6 -4 -5 1 3 10 11 15 11 17 -2 17 -8 0
-21 8 -28 18 -13 16 -13 16 6 2 18 -14 18 -13 -2 15 -12 17 -30 36 -42 44 -11
8 -18 18 -15 23 3 4 -2 8 -11 8 -9 0 -13 5 -10 11 4 6 -2 13 -14 16 -12 3 -24
16 -27 29 -3 13 -11 22 -18 21 -6 -1 -10 4 -8 11 1 8 -2 11 -9 7 -10 -7 -42
20 -48 40 -1 6 -5 12 -8 15 -4 3 -3 -1 1 -7 4 -7 2 -13 -3 -13 -6 0 -11 7 -11
16 0 10 -6 14 -14 11 -8 -3 -22 4 -32 16 -10 12 -12 16 -4 10 8 -7 18 -13 24
-13 5 0 1 6 -9 14 -11 8 -26 11 -34 8 -10 -4 -13 -1 -8 11 6 15 3 16 -13 7
-16 -8 -18 -8 -14 4 4 11 0 13 -15 9 -13 -3 -21 -1 -21 6 0 7 5 9 12 5 7 -4 8
-3 4 5 -6 9 -11 9 -24 -1 -13 -11 -15 -10 -9 4 4 13 2 15 -10 11 -11 -4 -14
-2 -9 5 4 7 -1 10 -15 7 -15 -3 -18 -1 -11 8 8 9 3 12 -15 14 -19 1 -22 -1
-12 -8 9 -6 10 -9 2 -9 -6 0 -15 5 -18 10 -4 6 -10 8 -15 5 -5 -3 -12 0 -16 6
-5 8 -3 9 6 4 8 -5 11 -4 6 3 -4 6 -14 8 -23 5 -12 -5 -14 -3 -8 8 7 11 5 11
-10 -1 -10 -8 -16 -10 -13 -5 4 6 3 17 -3 25 -7 12 -9 12 -9 1 0 -11 -3 -11
-17 0 -15 12 -16 12 -8 -1 7 -12 6 -13 -7 -3 -8 7 -18 10 -21 6 -4 -3 -7 0 -7
8 0 11 -2 11 -10 -1 -8 -12 -10 -12 -10 -1 0 11 -3 11 -17 0 -14 -12 -16 -12
-8 0 6 11 4 13 -8 8 -11 -4 -17 -1 -17 9 0 14 -2 14 -16 0 -21 -21 -30 -20
-13 1 13 15 12 15 -8 4 -20 -10 -35 1 -15 12 4 2 1 2 -6 0 -8 -1 -20 -3 -28
-3 -9 0 -12 -5 -8 -11 5 -8 1 -8 -13 0 -14 7 -24 7 -33 -2 -12 -10 -12 -9 -1
5 7 9 18 15 26 12 7 -3 16 0 21 7 4 8 3 10 -5 5 -6 -4 -19 -2 -28 6 -14 11
-16 11 -8 -1z m135 -137 c0 -8 -19 -13 -24 -6 -3 5 1 9 9 9 8 0 15 -2 15 -3z"/>
<path d="M1056 2251 c-3 -5 1 -11 9 -14 9 -4 12 -1 8 9 -6 16 -10 17 -17 5z"/>
<path d="M686 2214 c-3 -8 -10 -13 -15 -9 -5 3 -12 -4 -16 -15 -4 -11 -11 -17
-17 -14 -7 5 -9 2 -5 -8 4 -12 1 -14 -13 -11 -12 3 -20 -2 -25 -16 -3 -12 -10
-19 -15 -16 -4 3 -10 -5 -13 -16 -4 -16 -11 -20 -24 -15 -9 4 -14 4 -10 0 3
-4 -11 -24 -33 -45 -22 -22 -37 -39 -33 -39 5 0 0 -7 -11 -15 -10 -7 -15 -18
-11 -24 4 -7 0 -8 -11 -4 -14 5 -16 3 -11 -12 7 -16 5 -16 -9 -4 -16 13 -16
12 -5 -10 11 -19 11 -22 0 -16 -9 6 -11 3 -6 -8 5 -12 1 -17 -12 -17 -15 0
-19 -6 -17 -25 2 -13 0 -22 -5 -20 -4 3 -18 -9 -30 -27 -13 -18 -17 -28 -8
-24 7 4 5 -1 -7 -11 -21 -18 -42 -59 -25 -48 5 3 8 -3 6 -12 -1 -10 -10 -17
-19 -17 -13 2 -14 -1 -5 -12 9 -11 9 -14 0 -14 -7 0 -9 -4 -6 -10 3 -5 1 -10
-5 -10 -6 0 -8 -5 -4 -12 5 -7 2 -9 -7 -6 -10 4 -14 -3 -15 -21 -1 -14 1 -20
3 -13 3 6 9 12 15 12 6 0 4 -8 -5 -18 -10 -10 -14 -22 -10 -25 3 -4 0 -7 -8
-7 -11 0 -11 -2 1 -10 8 -5 10 -10 5 -10 -6 0 -12 -11 -13 -26 -1 -17 2 -23
10 -18 7 4 8 3 4 -5 -4 -6 -11 -9 -16 -6 -13 8 -19 -22 -7 -35 9 -10 9 -11 0
-6 -7 4 -13 2 -13 -3 0 -6 5 -11 11 -11 5 0 7 -5 4 -10 -4 -6 -10 -8 -14 -5
-5 2 -6 -12 -4 -31 2 -20 -2 -43 -9 -52 -11 -13 -11 -15 2 -10 13 5 16 -3 15
-37 0 -24 -3 -41 -7 -39 -4 2 -9 0 -13 -6 -3 -5 -1 -10 6 -10 10 0 10 -3 1
-12 -9 -9 -8 -16 5 -30 15 -17 15 -18 -3 -18 -15 0 -16 -2 -4 -9 8 -6 19 -7
25 -3 5 3 4 -2 -4 -11 -11 -14 -11 -17 0 -18 8 0 5 -4 -6 -9 -16 -7 -16 -9 -4
-9 9 -1 20 -8 23 -17 6 -15 4 -15 -11 -3 -17 13 -17 13 -1 -12 11 -18 13 -30
7 -36 -7 -7 -5 -16 6 -27 10 -10 12 -16 4 -16 -8 0 -8 -5 2 -17 12 -15 12 -16
-1 -8 -12 7 -13 6 -3 -6 10 -12 10 -18 1 -27 -7 -7 -8 -12 -2 -12 5 0 10 -13
10 -30 1 -17 -2 -27 -8 -24 -7 4 -7 0 0 -12 5 -11 7 -25 5 -32 -3 -7 1 -20 9
-29 7 -9 8 -14 2 -10 -7 4 -14 0 -18 -8 -3 -8 -1 -17 4 -20 10 -6 8 -23 -9
-54 -8 -14 -8 -21 -2 -17 7 5 9 1 5 -8 -3 -9 -11 -13 -18 -9 -8 4 -8 2 1 -7
13 -14 7 -40 -9 -40 -7 0 -6 5 1 13 8 10 7 14 -3 14 -14 0 -16 -21 -3 -33 11
-11 8 -26 -3 -19 -5 3 -5 -6 1 -24 8 -23 15 -28 32 -24 16 3 18 2 9 -5 -11 -7
-11 -10 3 -15 9 -4 13 -3 10 3 -3 6 -1 10 4 10 6 0 11 -5 11 -12 0 -6 3 -8 7
-4 5 4 8 13 8 19 0 7 6 13 13 13 24 3 24 4 11 21 -12 15 -12 16 3 10 12 -4 15
-2 11 8 -3 8 -10 12 -17 9 -6 -3 -3 1 7 9 9 8 17 22 17 31 0 10 4 15 8 12 5
-3 9 1 9 9 0 8 -4 12 -9 9 -14 -9 -9 4 8 21 14 13 14 19 4 28 -10 9 -11 9 -5
-2 5 -10 4 -12 -4 -7 -16 10 -3 29 16 22 9 -4 11 -2 6 7 -11 17 -10 31 2 39 6
5 5 8 -3 8 -9 0 -10 5 -2 19 7 14 7 22 0 26 -8 5 -7 12 2 23 10 12 10 14 0 8
-6 -4 -12 -3 -12 3 0 5 5 13 10 16 8 5 7 12 -1 22 -14 16 -19 62 -8 69 11 6
-2 44 -14 44 -6 0 -2 7 9 15 19 14 18 15 -4 21 -17 5 -20 9 -11 15 7 4 14 15
15 23 1 9 -2 14 -7 10 -5 -3 -6 -10 -3 -16 4 -7 2 -8 -5 -4 -6 4 -9 12 -5 17
3 5 0 17 -8 26 -9 12 -9 15 0 9 6 -4 12 -2 12 3 0 6 -8 11 -17 12 -14 0 -13 2
5 9 12 5 22 12 22 15 0 4 -4 4 -9 0 -5 -3 -12 -1 -16 5 -3 5 -2 10 4 10 10 0
6 38 -5 49 -4 3 -4 -2 -1 -11 3 -10 2 -20 -2 -22 -5 -3 -8 4 -7 15 0 11 8 24
16 29 12 8 12 10 -5 11 -11 0 -14 3 -7 6 6 2 9 9 6 14 -3 6 0 17 8 26 9 12 9
15 1 9 -7 -4 -13 -2 -13 3 0 6 6 11 13 11 9 0 8 3 -2 9 -7 5 -10 14 -7 20 4 6
12 8 18 5 7 -4 8 -2 4 5 -4 6 -12 9 -17 6 -5 -4 -9 -1 -9 4 0 6 5 11 11 11 6
0 9 7 5 15 -3 8 -1 15 4 15 5 0 6 7 3 17 -5 12 -3 14 8 8 8 -4 11 -5 7 0 -4 4
-2 15 5 24 9 12 5 11 -18 -3 -30 -19 -30 -19 -12 1 9 11 14 23 10 28 -5 4 -2
5 6 0 9 -5 12 -3 9 6 -3 8 2 20 11 27 12 10 13 12 1 6 -13 -7 -13 -5 -2 8 10
13 10 17 0 21 -11 4 -10 6 0 6 7 1 10 6 7 11 -3 6 -1 10 4 10 6 0 11 5 11 11
0 5 -4 8 -8 5 -5 -3 -9 1 -9 8 0 9 7 12 15 8 11 -4 14 -1 9 12 -5 11 -3 15 5
10 8 -5 9 -2 5 10 -4 10 -1 19 7 22 8 3 13 13 12 22 -3 20 23 64 34 57 4 -2 7
5 6 18 -1 15 4 22 16 21 11 -1 14 4 11 14 -5 11 -3 13 8 7 12 -8 12 -6 0 8 -9
12 -10 17 -2 17 7 0 22 10 34 21 12 12 17 19 11 16 -6 -3 -11 0 -11 8 0 10 5
11 18 4 15 -7 17 -6 13 5 -9 23 14 55 35 51 15 -3 19 1 16 17 -3 11 -2 18 2
15 3 -4 14 5 25 18 11 14 26 25 34 25 8 0 12 5 9 10 -3 6 3 10 14 10 12 0 21
4 21 9 0 5 9 12 19 16 13 4 18 13 16 25 -3 13 1 17 11 13 8 -3 14 -1 15 3 0 5
2 17 4 27 2 9 -1 15 -6 11 -5 -3 -7 -10 -4 -15 4 -5 1 -9 -4 -9 -6 0 -11 9
-11 20 0 11 5 20 12 20 15 0 4 11 -14 14 -7 1 -19 5 -27 10 -9 6 -12 5 -9 -5
3 -8 13 -13 23 -12 12 1 14 -2 6 -10 -7 -7 -14 -7 -24 1 -8 7 -17 8 -22 4 -4
-4 -4 3 -1 16 8 25 1 30 -8 6z m-461 -1002 c-3 -3 -11 0 -18 7 -9 10 -8 11 6
5 10 -3 15 -9 12 -12z m0 -612 c3 -5 1 -10 -4 -10 -6 0 -11 5 -11 10 0 6 2 10
4 10 3 0 8 -4 11 -10z"/>
<path d="M1165 2180 c-4 -6 -10 -8 -14 -6 -4 3 -13 1 -21 -4 -9 -5 -19 -5 -26
1 -8 7 -15 6 -20 -2 -5 -8 -3 -9 7 -4 12 8 12 6 0 -8 -14 -18 -26 -23 -16 -8
3 5 1 12 -5 16 -6 3 -13 0 -16 -9 -3 -8 -14 -13 -26 -11 -15 3 -18 0 -14 -12
5 -13 4 -14 -8 -4 -11 9 -15 9 -18 0 -3 -10 -39 -19 -90 -22 -9 -1 -16 -4 -15
-7 1 -3 -8 -15 -19 -26 -17 -17 -25 -19 -34 -10 -8 8 -10 7 -4 -7 5 -13 2 -16
-12 -10 -12 4 -15 3 -10 -5 4 -7 1 -12 -9 -12 -10 0 -13 -5 -9 -12 5 -7 2 -10
-7 -6 -8 2 -22 -4 -31 -14 -10 -10 -15 -18 -10 -19 4 0 -4 -5 -18 -11 -14 -6
-29 -10 -34 -9 -5 1 -3 -6 5 -15 9 -12 10 -15 1 -10 -7 4 -15 1 -18 -8 -3 -8
-15 -18 -26 -22 -16 -5 -18 -8 -7 -15 12 -7 11 -9 -1 -10 -8 -1 -19 -1 -23 0
-5 1 -6 -2 -3 -7 3 -5 -9 -25 -27 -44 -34 -37 -37 -42 -37 -59 0 -5 -6 -7 -12
-3 -7 4 -10 4 -6 -1 4 -4 2 -15 -5 -23 -10 -13 -9 -14 2 -8 9 6 8 0 -4 -17
-10 -17 -23 -24 -33 -20 -15 4 -15 3 -2 -7 10 -8 11 -13 4 -16 -7 -3 -10 -14
-7 -24 3 -11 1 -20 -5 -20 -9 0 -23 -30 -26 -55 -1 -5 -5 -13 -10 -17 -5 -3
-10 -25 -10 -47 -1 -27 -6 -41 -14 -41 -7 0 -10 -5 -7 -10 4 -6 11 -8 16 -5 5
3 6 -1 3 -9 -3 -9 -10 -13 -15 -10 -5 3 -5 -6 1 -20 6 -17 6 -27 -1 -32 -8 -4
-7 -9 2 -15 11 -7 11 -9 1 -9 -7 0 -11 -4 -7 -9 3 -5 0 -13 -6 -17 -9 -5 -7
-11 6 -21 11 -7 14 -13 8 -13 -7 0 -11 -9 -10 -20 1 -11 5 -20 10 -20 5 0 3
-7 -4 -17 -11 -12 -11 -17 -2 -20 8 -3 9 -12 3 -29 -6 -14 -6 -24 0 -24 5 0 7
-12 4 -26 -3 -16 -1 -23 6 -19 5 3 10 1 10 -4 0 -6 -4 -11 -8 -11 -4 0 -8 -9
-8 -20 0 -14 5 -19 15 -15 10 4 9 -1 -5 -16 -10 -12 -14 -19 -7 -16 6 4 14 3
18 -3 3 -5 2 -10 -4 -10 -12 0 -9 -18 8 -49 7 -13 9 -21 3 -17 -5 3 -13 -1
-16 -10 -4 -12 -2 -15 9 -10 8 3 15 1 15 -4 0 -6 -5 -10 -11 -10 -5 0 -7 -5
-3 -12 10 -16 12 -58 2 -52 -3 2 -9 0 -13 -6 -3 -5 0 -10 7 -10 18 0 15 -59
-4 -71 -11 -7 -10 -9 1 -9 12 0 12 -3 3 -12 -14 -14 -16 -32 -2 -23 6 3 7 -1
4 -9 -3 -9 -9 -14 -13 -12 -9 6 -5 -49 5 -66 6 -11 5 -11 -9 0 -14 12 -16 11
-12 -6 2 -11 -3 -28 -10 -39 -17 -22 -19 -33 -4 -33 5 0 7 5 3 12 -5 7 -3 8 5
3 9 -5 7 -12 -8 -27 -12 -10 -19 -23 -16 -28 3 -5 -4 -15 -16 -23 -15 -11 -17
-16 -7 -20 10 -4 11 -7 0 -18 -13 -14 -17 -53 -4 -45 5 3 9 -1 9 -9 0 -8 -4
-12 -9 -9 -4 3 -8 0 -8 -5 0 -6 7 -11 16 -11 9 0 12 -5 8 -12 -5 -8 0 -7 11 2
10 8 16 10 12 3 -4 -6 -2 -15 4 -19 8 -5 9 -3 4 6 -6 10 -4 12 10 6 15 -5 16
-4 6 8 -9 11 -9 16 0 22 8 5 9 3 4 -6 -5 -8 -3 -11 6 -8 8 3 14 10 14 16 0 6
9 18 20 27 11 9 13 14 5 10 -8 -4 -6 1 4 9 14 11 15 16 6 16 -9 0 -8 5 6 16
10 8 13 13 7 9 -19 -9 -16 6 5 21 10 8 12 13 5 14 -7 0 -13 5 -13 11 0 5 4 7
10 4 5 -3 10 -1 10 4 0 18 3 26 17 40 10 10 11 16 2 27 -9 11 -6 16 12 23 13
5 18 10 11 10 -7 1 -10 5 -7 11 3 6 1 10 -5 10 -7 0 -5 7 4 16 17 17 21 29 8
20 -5 -3 -8 11 -6 32 2 20 3 41 3 45 1 5 7 5 14 1 9 -6 9 -4 -1 8 -15 19 -9
64 9 60 10 -3 10 0 -1 12 -7 9 -9 16 -5 16 4 0 2 7 -5 15 -7 8 -9 15 -5 15 4
0 1 8 -6 17 -8 10 -9 14 -2 10 6 -4 14 -3 18 3 3 5 2 10 -3 10 -6 0 -13 7 -16
16 -3 8 -2 13 3 10 5 -3 12 1 15 10 3 8 2 13 -3 10 -5 -3 -11 3 -14 14 -3 13
-1 18 6 13 7 -4 6 1 -2 10 -11 14 -11 17 0 17 10 0 10 3 1 12 -16 16 -15 31 1
22 9 -6 9 -4 1 7 -6 8 -10 29 -9 47 1 17 -2 32 -6 32 -3 0 -9 9 -12 20 -3 11
-1 20 4 20 5 0 9 -5 9 -12 0 -6 2 -9 5 -6 8 8 -6 39 -14 33 -4 -2 -5 16 -1 40
4 26 3 48 -4 55 -6 6 -6 10 0 10 5 0 10 11 10 25 1 14 -2 22 -8 19 -7 -4 -7 0
0 12 5 11 7 25 4 33 -2 8 0 11 5 8 5 -3 10 0 10 8 0 8 -5 15 -11 15 -6 0 -5 4
3 9 10 7 10 10 1 16 -9 6 -6 13 11 27 13 11 18 17 12 13 -18 -9 -16 10 2 25
12 10 13 16 3 27 -9 11 -8 13 3 11 9 -2 14 5 13 19 0 12 4 21 9 20 5 -1 11 8
13 21 3 16 0 21 -8 16 -8 -4 -10 -3 -5 2 5 5 14 9 20 9 7 1 11 6 9 13 -1 7 3
12 9 12 6 0 9 7 5 15 -4 10 1 15 17 16 12 0 16 3 9 6 -9 4 -7 10 7 22 12 10
18 20 16 23 -3 3 2 11 12 19 15 12 16 12 8 -1 -5 -9 -5 -12 1 -7 5 5 9 14 9
20 1 7 7 11 15 9 11 -3 11 0 1 12 -11 13 -10 15 8 11 15 -3 18 0 14 12 -5 12
-2 15 9 11 9 -4 15 -1 14 5 0 7 3 13 8 14 5 0 13 8 18 17 5 9 14 13 20 10 7
-5 9 -1 5 9 -4 12 -2 14 10 10 11 -4 14 -2 9 5 -5 8 -1 10 10 5 13 -5 15 -3 9
7 -6 10 -4 12 8 7 15 -6 22 3 18 25 0 4 6 5 14 2 9 -4 15 0 15 7 0 11 3 11 10
-1 8 -13 10 -12 10 3 0 10 4 16 9 12 5 -3 13 0 16 6 4 5 13 8 21 5 8 -3 14 -1
14 5 0 6 5 7 12 3 8 -5 9 -2 4 11 -5 15 -4 16 9 5 10 -8 15 -9 15 -1 0 6 5 11
11 11 5 0 7 -5 3 -12 -4 -7 -3 -8 4 -4 7 4 12 14 12 22 0 8 5 14 11 14 5 0 7
-4 4 -10 -3 -5 -2 -10 4 -10 5 0 12 4 16 10 3 5 13 6 22 3 12 -5 14 -3 8 8 -6
11 -5 12 5 2 11 -10 18 -9 34 5 11 9 16 11 12 5 -4 -8 -1 -13 8 -13 8 0 16 6
19 13 3 9 8 9 18 -2 12 -12 12 -13 0 -6 -10 5 -12 4 -7 -4 10 -15 26 -4 26 17
0 14 2 14 9 3 10 -16 91 -22 91 -7 0 5 8 2 18 -7 10 -10 21 -15 24 -12 3 3 22
7 42 9 29 2 36 -1 31 -12 -4 -11 -2 -12 8 -4 10 9 17 8 27 -1 10 -9 11 -9 6 1
-5 7 -1 12 9 12 10 0 13 -5 9 -12 -6 -10 -5 -10 8 -1 8 7 19 9 23 5 5 -4 5 -1
1 6 -4 7 -12 10 -17 7 -5 -3 -6 1 -3 9 3 9 10 13 15 10 5 -3 9 0 9 6 0 6 5 8
12 4 7 -4 8 -3 4 5 -4 6 -12 9 -17 6 -5 -3 -6 1 -3 9 4 10 1 16 -9 16 -8 0
-17 10 -20 22 -5 19 -8 20 -23 7 -12 -9 -15 -10 -10 -1 4 7 1 12 -8 12 -9 0
-16 6 -17 13 0 6 -4 3 -9 -8 -5 -11 -9 -15 -9 -9 -1 16 -39 25 -45 10 -3 -7
-8 -6 -15 4 -10 13 -11 13 -11 0 0 -9 -3 -11 -8 -5 -9 13 -42 13 -61 1 -10 -6
-12 -5 -7 2 9 15 1 15 -26 1 -13 -7 -18 -7 -14 -1 8 14 -35 12 -53 -2 -10 -8
-15 -8 -18 2 -6 15 -19 16 -28 2z m-255 -95 c-7 -9 -15 -13 -19 -10 -3 3 1 10
9 15 21 14 24 12 10 -5z m420 -1 c0 -8 -19 -13 -24 -6 -3 5 1 9 9 9 8 0 15 -2
15 -3z m58 -19 c-3 -3 -9 2 -12 12 -6 14 -5 15 5 6 7 -7 10 -15 7 -18z"/>
<path d="M1693 2085 c0 -8 4 -12 9 -9 5 3 6 10 3 15 -9 13 -12 11 -12 -6z"/>
<path d="M1662 2073 c-6 -3 -10 -9 -6 -14 3 -5 1 -9 -4 -9 -6 0 -9 -11 -8 -24
1 -18 4 -22 14 -14 9 8 11 7 6 -6 -4 -10 0 -18 10 -22 9 -3 16 -14 16 -23 0
-14 2 -14 10 -1 7 11 10 11 10 2 0 -8 5 -10 13 -6 7 5 6 0 -3 -11 -10 -12 -10
-16 -2 -11 7 4 20 2 29 -6 14 -11 16 -11 8 1 -6 10 -4 12 4 7 7 -5 10 -14 7
-22 -8 -20 12 -28 31 -12 10 8 14 8 10 1 -4 -6 -3 -14 3 -18 6 -4 8 -10 5 -15
-3 -4 5 -6 17 -3 19 4 20 3 8 -6 -13 -10 -13 -11 0 -12 8 -1 19 -1 24 0 5 1 3
-5 -4 -14 -11 -14 -11 -16 1 -13 8 2 13 -2 12 -8 -1 -7 6 -10 17 -7 12 3 20 0
20 -6 0 -7 -4 -10 -9 -6 -5 3 -13 0 -17 -6 -4 -7 -3 -9 3 -6 6 4 14 0 17 -9 4
-9 13 -14 22 -10 8 3 12 2 9 -3 -3 -5 -1 -13 5 -16 8 -5 7 -11 -1 -21 -7 -9
-8 -14 -3 -13 5 1 16 1 24 0 13 -1 13 -2 0 -11 -13 -8 -13 -10 1 -10 9 0 23
-8 30 -17 10 -11 10 -14 2 -9 -18 10 -16 -10 3 -28 9 -9 11 -16 4 -16 -6 0 -8
-5 -5 -10 4 -6 10 -8 15 -5 4 3 11 -2 14 -11 3 -8 2 -13 -2 -10 -5 3 -9 -2 -9
-11 0 -9 9 -18 20 -21 14 -4 16 -7 5 -13 -10 -7 -10 -9 0 -9 7 0 12 -13 12
-30 0 -16 5 -30 11 -30 6 0 7 -5 2 -12 -4 -7 -9 -22 -10 -33 -3 -17 -1 -17 7
-5 8 11 10 5 9 -25 -2 -59 0 -67 12 -59 7 4 7 -1 -1 -16 -7 -12 -8 -20 -2 -16
5 3 13 -1 16 -10 3 -8 2 -12 -4 -9 -6 3 -10 1 -10 -4 0 -6 8 -11 18 -12 11 -1
9 -4 -8 -9 -16 -5 -19 -8 -8 -9 17 -1 18 -27 2 -54 -6 -9 -4 -9 8 1 13 10 18
10 24 1 4 -7 3 -9 -3 -6 -6 4 -13 0 -17 -8 -3 -8 -1 -15 3 -15 5 0 12 -7 15
-16 3 -8 2 -13 -3 -10 -5 3 -12 -1 -15 -10 -4 -9 -2 -13 5 -8 8 5 10 -3 7 -25
-2 -17 -1 -31 4 -31 4 0 8 -5 8 -11 0 -5 -4 -8 -8 -5 -10 6 -8 -36 2 -52 4 -7
2 -12 -3 -12 -6 0 -11 -5 -11 -11 0 -5 4 -7 10 -4 6 4 7 -10 4 -36 -5 -33 -3
-40 7 -33 12 6 12 5 0 -9 -7 -9 -10 -17 -6 -17 4 0 1 -8 -6 -17 -12 -14 -12
-16 0 -8 11 6 13 3 9 -13 -4 -12 -2 -25 3 -28 6 -4 6 -10 0 -17 -5 -7 -8 -24
-6 -40 2 -15 -1 -27 -6 -27 -5 0 -9 -5 -9 -11 0 -5 3 -8 8 -6 4 3 8 -6 8 -19
1 -15 -2 -22 -10 -17 -7 4 -7 1 1 -7 10 -11 9 -16 -4 -25 -13 -10 -13 -14 -3
-20 9 -6 11 -4 5 5 -6 9 -4 11 4 5 10 -6 9 -11 -3 -23 -14 -14 -14 -17 1 -27
13 -10 13 -14 3 -20 -9 -6 -11 -4 -5 6 7 12 5 12 -6 1 -12 -11 -12 -14 1 -22
8 -5 10 -10 4 -10 -14 0 -24 -59 -12 -66 4 -3 4 -13 -1 -22 -5 -9 -10 -21 -11
-27 -2 -5 -5 -16 -8 -24 -3 -7 1 -17 9 -22 10 -6 10 -9 2 -9 -7 0 -13 -5 -13
-11 0 -5 5 -7 11 -4 6 4 9 1 8 -6 -1 -8 1 -22 6 -32 6 -14 10 -15 16 -6 4 7
15 14 23 15 9 1 14 -2 10 -7 -3 -5 -10 -6 -16 -3 -7 4 -8 2 -4 -4 5 -8 13 -9
25 -2 10 5 22 6 26 2 4 -4 2 3 -4 16 -9 17 -9 22 0 20 6 -2 14 3 17 11 3 9 0
11 -8 6 -7 -4 -4 4 5 19 14 20 14 26 4 26 -11 0 -11 2 0 9 8 5 16 17 17 25 1
9 -2 14 -7 10 -5 -3 -9 0 -9 5 0 6 5 11 10 11 6 0 10 5 10 11 0 5 -5 7 -11 3
-6 -3 -3 5 6 20 10 14 14 26 10 26 -4 0 -2 7 5 15 7 9 10 18 6 22 -3 3 -6 1
-6 -5 0 -7 -5 -12 -10 -12 -7 0 -7 6 0 19 13 26 13 34 -2 25 -10 -6 -10 -5 -1
8 7 8 9 19 5 23 -4 5 2 5 12 1 16 -6 17 -4 5 10 -16 20 -20 42 -8 50 5 3 9 10
9 15 0 6 -4 8 -8 5 -5 -3 -9 1 -9 9 0 8 4 12 9 9 10 -6 6 25 -5 43 -6 9 -3 11
10 6 15 -5 16 -3 6 8 -7 7 -13 17 -13 22 0 4 6 5 13 1 6 -4 3 3 -7 15 -20 22
-20 22 0 15 16 -6 17 -5 7 7 -16 16 -17 33 -1 23 7 -5 8 -3 3 7 -5 7 -8 26 -7
42 1 16 -1 26 -6 23 -5 -3 -9 1 -9 8 0 8 7 12 16 9 13 -4 13 -2 -1 10 -20 16
-14 29 10 19 14 -5 15 -4 2 10 -8 9 -18 14 -22 11 -4 -2 -5 3 -2 11 3 9 9 14
13 11 6 -3 7 35 1 43 -2 1 -3 8 -4 15 -1 6 -8 11 -16 9 -10 -3 -9 3 4 17 18
20 18 21 1 21 -18 0 -18 0 0 13 12 10 14 16 7 21 -16 10 -15 43 1 49 9 4 8 6
-2 6 -11 1 -11 4 0 19 11 14 11 15 -1 5 -20 -18 -29 -16 -25 5 1 9 -2 25 -7
34 -7 14 -5 16 9 11 15 -5 16 -4 7 8 -6 8 -10 22 -9 32 3 14 0 16 -9 7 -10 -8
-13 -5 -11 14 2 14 6 30 10 35 3 6 1 11 -6 11 -8 0 -8 4 1 15 7 8 8 15 3 15
-6 0 -10 15 -10 33 1 18 -2 38 -7 45 -4 7 -4 12 1 12 4 0 2 4 -6 9 -7 5 -13
20 -13 35 0 14 -4 23 -9 20 -5 -3 -9 4 -9 15 0 12 -6 21 -12 21 -10 0 -9 3 1
9 11 7 11 9 0 14 -11 4 -11 6 1 7 10 0 6 6 -10 15 -14 8 -19 14 -12 15 10 0 9
4 -2 16 -9 8 -13 20 -10 26 4 7 2 8 -4 4 -7 -4 -12 -2 -12 4 0 6 -5 8 -12 4
-9 -5 -9 -3 1 9 11 14 11 18 -3 23 -13 5 -14 9 -5 20 10 12 8 13 -6 7 -15 -5
-17 -3 -11 12 4 11 4 17 1 13 -10 -10 -56 42 -49 54 5 7 1 9 -9 5 -11 -4 -14
-2 -10 9 4 10 0 12 -11 8 -11 -4 -16 -2 -14 7 2 8 -2 13 -9 12 -8 -2 -10 4 -6
14 4 11 3 14 -5 9 -7 -4 -12 -1 -12 8 0 15 -12 21 -34 17 -5 -1 -4 5 3 13 10
12 9 14 -7 10 -11 -3 -24 2 -33 13 -13 17 -13 17 6 3 20 -15 20 -14 1 8 -20
23 -32 30 -21 12 11 -18 -6 -10 -30 14 -13 13 -21 27 -17 31 4 3 -6 1 -22 -5
-25 -9 -27 -9 -17 4 11 13 9 15 -9 11 -13 -2 -25 -7 -28 -10 -3 -2 -10 -1 -16
4 -6 4 -17 6 -24 4z m128 -163 c0 -5 -5 -10 -11 -10 -5 0 -7 5 -4 10 3 6 8 10
11 10 2 0 4 -4 4 -10z m420 -1384 c0 -3 -4 -8 -10 -11 -5 -3 -10 -1 -10 4 0 6
5 11 10 11 6 0 10 -2 10 -4z m-103 -191 c0 -8 -4 -12 -9 -9 -5 3 -6 10 -3 15
9 13 12 11 12 -6z"/>
<path d="M1215 1980 c-16 -18 -20 -19 -35 -5 -14 13 -17 13 -17 0 0 -8 5 -11
10 -8 6 3 7 1 3 -6 -6 -9 -11 -9 -24 1 -12 10 -14 10 -8 1 4 -7 2 -13 -3 -13
-6 0 -11 6 -11 12 0 7 -7 2 -16 -10 -12 -17 -19 -20 -34 -12 -24 13 -30 13
-30 -1 0 -5 5 -7 12 -3 6 4 8 3 5 -4 -8 -11 -25 -11 -44 1 -9 6 -11 3 -7 -7 4
-11 0 -14 -15 -11 -17 3 -19 1 -12 -13 7 -14 5 -18 -9 -18 -10 0 -16 5 -13 11
2 5 -5 -1 -17 -15 -12 -14 -19 -20 -16 -14 3 6 -1 11 -9 11 -8 0 -13 -2 -11
-5 9 -8 -35 -42 -47 -35 -7 4 -6 -1 3 -13 8 -10 11 -16 6 -12 -5 4 -15 0 -23
-8 -8 -8 -19 -11 -25 -8 -7 4 -8 2 -4 -4 4 -7 2 -12 -5 -12 -7 0 -9 -3 -5 -7
3 -4 -6 -13 -21 -20 -16 -7 -19 -11 -8 -8 l20 5 -20 -16 c-11 -8 -19 -20 -17
-26 2 -6 -4 -8 -12 -5 -9 4 -15 3 -15 -1 3 -20 -2 -45 -8 -39 -12 12 -32 -27
-21 -41 8 -10 6 -11 -8 -6 -10 4 -16 4 -12 -1 4 -4 0 -14 -10 -22 -11 -9 -11
-12 -2 -7 12 6 13 4 3 -7 -7 -7 -13 -21 -13 -32 0 -11 -5 -15 -11 -11 -7 4 -6
-2 2 -17 12 -23 11 -23 -6 -9 -17 14 -17 14 -7 -7 10 -17 9 -22 -4 -27 -14 -5
-14 -9 -3 -23 12 -14 12 -16 0 -9 -9 6 -12 5 -9 -5 3 -8 1 -23 -5 -34 -15 -28
-17 -115 -3 -115 7 0 7 -3 -1 -8 -10 -6 -11 -30 -3 -52 1 -3 2 -14 1 -25 -2
-17 0 -17 8 -5 13 19 14 9 1 -24 -8 -21 -5 -28 15 -45 20 -15 22 -20 10 -25
-11 -4 -13 -11 -7 -23 5 -10 7 -30 6 -45 -2 -17 2 -28 9 -28 7 0 6 -4 -3 -10
-13 -8 -13 -10 -1 -10 11 0 9 -4 -5 -15 -16 -13 -16 -14 -1 -9 18 7 24 -10 7
-21 -6 -4 -7 -12 -3 -18 14 -22 11 -58 -4 -53 -17 7 -17 1 3 -19 12 -11 14
-19 6 -27 -6 -6 -8 -17 -5 -26 5 -11 3 -13 -8 -7 -8 5 -5 -2 5 -14 20 -22 20
-22 0 -16 -18 6 -18 6 -2 -8 14 -11 15 -16 5 -27 -9 -10 -9 -11 1 -6 6 4 12 2
12 -4 0 -6 5 -8 10 -5 6 3 10 -1 10 -10 0 -9 5 -13 10 -10 6 4 7 12 3 18 -4 8
-1 7 9 -1 19 -15 34 0 22 21 -5 8 -2 7 9 -2 15 -12 17 -12 11 4 -6 14 -4 16 7
10 11 -7 11 -5 -1 10 -8 10 -10 16 -4 12 7 -4 14 3 16 18 3 13 2 22 -2 20 -5
-3 -10 2 -13 10 -4 10 -1 12 10 8 13 -5 14 -3 4 15 -9 17 -9 22 1 22 8 0 9 3
3 8 -5 4 -10 21 -10 39 0 26 2 29 14 20 12 -10 12 -9 2 11 -16 30 -23 64 -11
57 5 -3 12 0 16 6 4 7 3 10 -2 6 -5 -3 -14 6 -21 19 -6 13 -8 22 -3 19 4 -3
11 2 14 11 3 9 2 12 -5 8 -7 -4 -9 4 -6 25 3 17 2 29 -3 26 -4 -3 -11 2 -14
11 -8 21 -8 26 2 20 4 -2 8 4 8 14 0 12 -6 17 -19 14 -15 -3 -17 -1 -7 11 7 8
17 12 23 8 6 -3 7 -1 3 6 -4 6 -11 9 -16 6 -4 -2 -8 8 -7 23 0 15 -3 39 -6 55
-4 19 -2 25 6 21 9 -5 9 -4 1 5 -12 13 -7 54 6 46 6 -4 6 20 0 50 -6 25 1 45
15 45 9 0 12 6 8 15 -3 9 3 23 13 31 18 15 18 15 0 9 -19 -6 -19 -5 -3 13 9
10 17 26 17 35 0 9 5 17 10 17 6 0 10 7 10 16 0 9 6 14 13 11 8 -3 14 1 14 8
0 7 -7 11 -15 8 -8 -3 -2 6 13 21 14 14 23 31 19 38 -5 7 -3 8 5 4 13 -8 93
69 82 79 -3 4 3 3 13 -1 15 -6 17 -4 11 7 -7 11 -5 11 10 -1 11 -9 16 -10 11
-2 -4 7 -1 12 8 12 10 0 13 6 9 18 -6 15 -5 15 11 3 13 -11 16 -11 14 -1 -2 7
3 15 11 18 9 3 11 0 6 -9 -4 -8 2 -4 14 9 24 24 37 29 25 10 -6 -9 -3 -9 9 0
9 8 21 11 27 7 6 -4 9 -3 8 2 -2 4 2 10 7 12 6 2 16 11 23 20 12 15 13 14 8
-1 -3 -10 0 -20 7 -24 7 -4 9 -4 5 1 -4 4 0 14 8 23 14 13 17 13 25 1 8 -13
13 -6 10 14 -1 4 7 3 18 -2 14 -8 21 -7 24 2 4 9 6 8 6 -2 1 -10 4 -11 15 -2
11 9 16 9 21 0 6 -8 10 -7 16 2 6 10 9 11 9 2 0 -7 5 -13 11 -13 5 0 7 4 4 10
-3 6 1 7 9 4 9 -3 13 -11 9 -18 -4 -6 1 -5 10 3 9 7 17 10 17 5 0 -5 5 -2 10
6 9 13 10 13 11 0 1 -8 1 -18 1 -21 -1 -3 12 -3 29 -1 18 3 29 0 29 -7 0 -7 5
-9 10 -6 6 3 10 0 10 -7 0 -9 3 -9 10 2 8 13 10 12 10 -4 0 -11 5 -16 14 -13
7 3 19 0 26 -6 10 -9 11 -9 5 2 -6 10 -4 12 4 7 7 -5 10 -15 7 -25 -5 -12 -2
-11 9 3 12 16 15 17 15 4 0 -9 7 -19 16 -22 8 -3 12 -10 9 -16 -3 -5 -2 -10 4
-10 5 0 12 6 14 13 4 10 6 10 6 0 1 -7 8 -13 16 -13 8 0 15 -6 15 -14 0 -8 9
-18 20 -21 11 -3 20 -11 20 -16 0 -6 -6 -7 -12 -3 -9 5 -9 2 1 -9 16 -20 25
-22 16 -4 -4 6 3 1 14 -13 11 -14 21 -29 21 -34 0 -5 3 -6 6 -3 4 4 3 12 -2
20 -5 7 1 1 13 -13 13 -14 23 -20 23 -13 0 7 7 10 15 7 8 -4 17 1 21 10 3 9
11 13 17 9 6 -4 7 -1 1 8 -13 21 -14 40 -1 33 7 -3 1 4 -13 16 -19 17 -21 20
-6 16 16 -5 17 -4 6 9 -7 8 -16 12 -21 9 -5 -3 -6 2 -3 11 4 11 2 14 -9 9 -8
-3 -18 0 -23 7 -5 8 -3 10 7 4 8 -5 0 6 -18 24 -20 21 -36 30 -44 25 -9 -5
-10 -2 -6 10 5 13 3 17 -7 13 -8 -3 -16 2 -19 15 -3 11 -10 17 -16 13 -6 -3
-25 7 -43 24 -19 18 -37 27 -47 23 -14 -5 -14 -4 -1 14 11 15 11 16 0 7 -16
-15 -50 -17 -50 -4 0 5 -13 8 -30 7 -21 -2 -30 2 -30 13 0 14 -1 14 -10 1 -7
-12 -10 -12 -10 -1 0 7 -6 11 -15 7 -8 -3 -14 -2 -14 2 3 20 -4 21 -37 7 -30
-12 -34 -13 -25 -1 9 11 9 16 0 22 -7 4 -9 3 -5 -4 4 -8 -9 -10 -44 -8 -39 2
-50 -1 -51 -13 0 -10 -4 -7 -9 7 -11 27 -12 27 -35 2z m18 -5 c-3 -9 -8 -14
-10 -11 -3 3 -2 9 2 15 9 16 15 13 8 -4z m181 -10 c-4 -8 -11 -12 -16 -9 -6 4
-5 10 3 15 19 12 19 11 13 -6z m196 -60 c11 -13 10 -14 -4 -9 -9 3 -16 10 -16
15 0 13 6 11 20 -6z m-975 -524 c3 -5 2 -12 -3 -15 -5 -3 -9 1 -9 9 0 17 3 19
12 6z m0 -60 c3 -5 2 -12 -3 -15 -5 -3 -9 1 -9 9 0 17 3 19 12 6z m0 -60 c3
-5 2 -12 -3 -15 -5 -3 -9 1 -9 9 0 17 3 19 12 6z m19 -99 c3 -5 -1 -9 -9 -9
-8 0 -12 4 -9 9 3 4 7 8 9 8 2 0 6 -4 9 -8z"/>
<path d="M566 1953 c-6 -14 -5 -15 5 -6 7 7 10 15 7 18 -3 3 -9 -2 -12 -12z"/>
<path d="M1240 1765 c-10 -12 -16 -13 -28 -3 -12 10 -14 10 -9 1 6 -9 -2 -11
-27 -9 -19 1 -33 -1 -30 -6 3 -4 0 -8 -6 -8 -6 0 -8 -4 -5 -10 3 -5 0 -8 -7
-5 -7 3 -18 -3 -25 -14 -9 -15 -8 -24 7 -49 19 -30 32 -34 59 -18 9 6 12 5 8
-1 -4 -7 3 -10 18 -9 18 1 24 5 20 16 -4 8 -3 11 1 8 4 -4 16 -3 27 3 11 7 17
7 13 1 -3 -5 6 -12 19 -15 14 -2 28 0 32 6 3 6 1 7 -5 3 -8 -5 -10 -2 -6 8 5
13 9 12 26 -7 11 -12 17 -17 14 -11 -3 7 1 15 10 18 8 3 12 2 9 -3 -3 -5 -1
-12 5 -16 5 -3 10 2 11 12 0 14 2 14 9 -4 5 -13 12 -23 15 -23 4 0 3 5 0 10
-3 6 -1 10 4 10 6 0 11 -5 11 -11 0 -6 9 -9 20 -6 11 3 23 1 26 -4 3 -5 10 -6
16 -3 7 5 9 1 5 -9 -4 -12 -1 -15 14 -12 18 4 19 2 7 -12 -7 -9 -8 -14 -2 -10
6 4 19 -2 29 -13 10 -11 22 -17 26 -14 5 3 9 -2 9 -10 0 -10 6 -13 17 -9 12 5
14 3 7 -8 -12 -20 -14 -40 -3 -33 5 3 7 10 4 15 -3 5 0 6 7 4 8 -3 15 -15 15
-27 1 -12 9 -26 18 -30 8 -5 13 -14 9 -19 -3 -5 -1 -15 4 -22 5 -7 8 -22 7
-34 -1 -12 2 -20 6 -18 4 3 10 -2 13 -11 8 -21 8 -24 -5 -24 -5 0 -7 5 -3 12
4 7 3 8 -5 4 -9 -6 -9 -11 0 -22 6 -8 8 -14 5 -14 -4 0 2 -13 14 -29 14 -21
17 -32 9 -37 -8 -5 -9 -3 -4 6 6 9 4 11 -5 5 -10 -6 -9 -11 5 -22 14 -9 15
-13 4 -13 -12 0 -12 -2 1 -10 13 -8 13 -10 1 -10 -11 0 -9 -4 5 -15 14 -11 15
-14 4 -15 -13 0 -13 -1 0 -10 8 -5 10 -10 4 -10 -7 0 -9 -15 -5 -42 8 -53 8
-60 -2 -75 -5 -8 -3 -11 5 -8 15 6 18 -31 4 -53 -4 -7 -3 -12 3 -12 6 0 8 -7
5 -15 -4 -8 -11 -12 -18 -8 -6 3 -2 -4 9 -17 11 -13 14 -20 8 -16 -7 4 -13 2
-13 -3 0 -6 6 -11 13 -11 8 0 8 -3 -2 -9 -11 -7 -10 -10 5 -14 17 -4 17 -5 1
-6 -10 0 -16 -5 -13 -9 10 -17 15 -62 5 -57 -10 7 -7 -44 5 -63 5 -8 2 -10
-11 -5 -16 6 -16 5 -4 -11 12 -14 12 -19 2 -26 -11 -6 -11 -9 0 -13 12 -5 12
-6 0 -6 -11 -1 -11 -4 0 -18 12 -14 12 -15 1 -9 -11 7 -12 4 -3 -13 7 -13 8
-21 2 -21 -6 0 -8 -7 -5 -15 4 -9 0 -15 -7 -15 -11 0 -11 -3 1 -10 13 -9 13
-10 0 -10 -12 0 -12 -2 -2 -9 11 -6 10 -10 -3 -15 -10 -3 -15 -12 -12 -20 3
-8 1 -17 -6 -20 -7 -3 -1 -3 13 0 14 3 20 2 14 -3 -6 -4 -13 -16 -17 -26 -4
-11 -12 -15 -18 -11 -8 4 -9 3 -5 -5 4 -6 11 -9 15 -7 4 3 7 -5 8 -17 0 -12
-1 -16 -4 -9 -3 6 -9 12 -14 12 -5 0 -4 -11 1 -25 5 -14 6 -24 2 -24 -18 3
-22 -3 -12 -20 7 -14 7 -22 -2 -27 -7 -5 -8 -3 -3 7 5 8 4 10 0 6 -14 -12 -15
-38 -2 -30 7 4 5 -4 -5 -18 -15 -24 -15 -26 0 -37 15 -10 15 -11 -1 -5 -10 3
-17 2 -16 -3 4 -26 -2 -45 -13 -38 -7 4 -10 4 -6 -1 4 -4 2 -15 -5 -23 -8 -11
-8 -13 0 -9 7 5 9 1 6 -12 -3 -13 -10 -18 -21 -13 -15 5 -15 4 1 -12 21 -21
22 -27 2 -20 -13 5 -14 2 -5 -20 7 -19 6 -26 -3 -26 -6 0 1 -9 17 -19 17 -11
33 -18 37 -15 4 2 10 -2 13 -8 3 -7 3 -3 0 10 -6 23 11 31 19 10 4 -10 6 -10
6 0 1 6 6 12 12 12 5 0 7 -5 3 -12 -4 -6 -3 -8 4 -5 5 4 8 16 5 27 -3 12 0 20
7 20 10 0 10 3 1 14 -10 11 -8 17 6 25 10 6 13 11 6 11 -7 0 -10 7 -7 15 4 8
10 12 15 9 5 -3 5 6 -1 20 -7 20 -6 24 5 20 9 -4 13 1 12 15 -1 12 -6 21 -11
21 -5 0 -6 3 -3 6 4 4 12 2 19 -4 10 -8 13 -4 15 15 1 19 -1 22 -8 12 -6 -9
-9 -10 -9 -2 0 6 5 15 11 18 5 4 8 12 6 18 -2 7 3 18 12 25 9 8 11 11 5 8 -7
-3 -14 3 -17 14 -3 11 -1 18 3 15 5 -3 11 -1 14 4 4 5 2 12 -3 16 -14 8 -1 36
13 28 6 -3 8 -3 4 2 -4 4 -2 17 4 29 11 20 10 20 -8 6 -18 -15 -18 -14 0 14
10 16 14 26 9 23 -5 -4 -10 0 -10 7 0 8 6 12 14 9 9 -4 11 0 7 11 -3 9 -11 13
-17 9 -6 -3 -7 -1 -3 5 4 7 15 12 24 12 15 1 15 2 -1 11 -17 10 -17 13 -3 33
15 25 16 42 2 65 -7 10 -6 12 4 6 10 -6 12 -3 8 13 -4 13 -1 22 5 22 7 0 5 5
-3 10 -13 9 -13 10 0 10 13 0 13 1 0 10 -10 6 -11 10 -2 10 6 0 12 5 12 11 0
5 -4 7 -10 4 -5 -3 -10 -1 -10 4 0 6 5 11 11 11 8 0 7 6 -2 17 -8 10 -9 14 -2
10 13 -8 12 30 -2 52 -5 10 -4 12 3 7 15 -9 15 -1 1 26 -8 15 -8 19 0 14 13
-8 10 21 -3 43 -7 11 -5 13 6 9 8 -4 15 0 15 8 0 7 -4 11 -8 9 -4 -3 -9 2 -13
10 -3 8 -1 17 4 20 7 4 6 13 0 26 -8 14 -7 19 1 19 8 0 7 7 -3 23 -15 22 -14
52 1 43 4 -3 8 1 8 9 0 8 -4 12 -8 10 -4 -3 -9 2 -13 10 -3 8 -1 15 5 15 6 0
7 5 4 10 -4 6 -11 7 -17 4 -7 -5 -8 -2 -4 5 5 7 15 10 23 6 13 -4 14 -3 3 10
-7 8 -16 13 -20 10 -11 -7 -6 22 5 32 4 4 5 2 0 -6 -6 -10 -4 -12 4 -7 8 6 9
12 2 20 -6 7 -7 17 -3 21 4 5 1 5 -6 1 -7 -4 -9 -12 -6 -18 4 -7 2 -8 -4 -4
-9 5 -9 13 -2 26 14 26 13 30 -7 31 -15 0 -15 2 2 9 11 5 14 9 7 9 -7 1 -11 5
-7 10 3 5 -3 12 -12 14 -16 4 -16 5 1 6 16 1 17 3 5 17 -17 21 -21 46 -6 37 7
-3 4 2 -5 13 -13 15 -15 23 -7 31 8 8 4 17 -13 32 -21 20 -21 22 -3 16 12 -4
15 -3 9 2 -15 11 -39 56 -36 66 1 5 -2 6 -8 2 -9 -6 -14 8 -11 28 1 5 -3 6 -9
2 -5 -3 -10 2 -10 12 0 15 -2 16 -11 3 -9 -12 -10 -11 -6 7 3 15 1 20 -9 16
-8 -3 -14 0 -14 7 0 6 -5 8 -12 4 -9 -6 -9 -3 0 9 12 14 11 16 -7 12 -12 -2
-22 0 -22 6 -1 5 -3 14 -4 19 -1 6 -3 12 -4 15 0 3 -10 1 -21 -5 -16 -9 -18
-8 -14 5 4 9 0 15 -10 16 -31 3 -36 4 -54 19 -21 17 -39 23 -65 22 -9 0 -15 4
-11 9 7 12 -19 7 -28 -6 -5 -6 -8 -5 -8 2 0 7 -7 10 -17 6 -11 -4 -14 -3 -9 5
4 7 2 12 -3 12 -6 0 -11 -5 -11 -11 0 -5 -6 -7 -12 -3 -21 13 -49 12 -44 -2 3
-8 0 -11 -9 -7 -8 3 -12 9 -9 14 9 15 -3 10 -16 -6z m-118 -62 c-6 -2 -9 -10
-6 -15 4 -7 2 -8 -5 -4 -13 9 -5 26 12 25 9 0 8 -2 -1 -6z m15 -48 c0 -8 -4
-12 -9 -9 -5 3 -6 10 -3 15 9 13 12 11 12 -6z m408 -83 c-3 -3 -11 0 -18 7 -9
10 -8 11 6 5 10 -3 15 -9 12 -12z m169 -58 c3 -8 2 -12 -4 -9 -6 3 -10 10 -10
16 0 14 7 11 14 -7z"/>
<path d="M1480 1746 c0 -2 8 -10 18 -17 15 -13 16 -12 3 4 -13 16 -21 21 -21
13z"/>
<path d="M86 1698 c5 -7 1 -9 -9 -5 -11 4 -17 1 -17 -8 0 -8 -5 -15 -11 -15
-8 0 -8 -4 0 -14 13 -15 -1 -32 -17 -22 -5 3 -8 -4 -7 -15 1 -11 8 -25 16 -30
19 -12 3 -12 -20 0 -13 8 -17 5 -18 -12 -1 -12 3 -25 10 -29 9 -6 9 -8 0 -8
-10 0 -13 -55 -13 -241 0 -146 4 -238 9 -234 5 3 13 0 17 -6 4 -7 3 -9 -3 -6
-6 4 -13 1 -16 -7 -10 -24 -1 -51 18 -54 11 -3 15 0 10 7 -3 6 -10 9 -14 7 -4
-3 -8 1 -8 9 0 12 4 12 19 -2 18 -16 18 -18 2 -30 -17 -12 -16 -13 4 -13 12 0
22 -5 22 -11 0 -6 -7 -8 -17 -5 -15 6 -15 4 2 -14 10 -11 15 -20 10 -20 -4 0
-1 -8 6 -17 12 -15 12 -16 -1 -8 -13 8 -13 7 -1 -8 7 -9 10 -17 5 -17 -4 0 -4
-4 2 -9 12 -12 66 -23 59 -12 -2 5 2 14 10 21 13 11 14 10 9 -4 -4 -11 -2 -15
8 -11 17 7 20 35 4 35 -6 0 -6 4 2 8 7 5 14 18 17 31 2 12 0 19 -6 16 -5 -4
-6 -12 -3 -18 4 -7 3 -9 -1 -4 -13 11 -14 51 -1 59 7 5 4 8 -8 8 -13 0 -17 5
-13 20 4 14 0 20 -11 20 -13 0 -12 3 4 16 10 8 13 13 6 9 -6 -3 -13 0 -14 7 0
7 -2 18 -2 23 -1 6 -6 16 -10 24 -7 11 -5 13 9 7 18 -6 18 -6 2 12 -13 14 -14
21 -5 30 9 9 9 12 -1 12 -7 0 -11 6 -8 14 3 7 1 18 -5 24 -6 6 -7 16 -2 24 5
7 9 19 10 26 2 10 -1 11 -12 1 -12 -10 -13 -9 -8 5 3 9 11 16 17 16 6 0 2 7
-9 15 -19 15 -19 15 1 8 11 -3 17 -3 13 2 -4 4 -2 15 5 23 7 10 8 13 1 9 -7
-4 -14 3 -16 18 -3 14 -1 22 5 18 5 -3 6 3 2 17 -5 17 -4 21 5 15 9 -6 11 -4
4 6 -11 18 -14 39 -6 39 4 0 7 13 8 30 1 19 -3 27 -10 23 -6 -4 -5 0 2 9 7 9
12 20 11 24 -1 5 -1 11 1 14 1 3 3 18 5 34 2 16 10 33 16 37 7 4 14 15 15 23
1 9 -2 13 -9 9 -7 -4 -8 0 -4 11 4 9 3 15 -2 11 -6 -3 -14 2 -18 10 -5 8 -19
17 -31 20 -15 2 -20 0 -16 -7z"/>
<path d="M983 1627 c4 -10 3 -16 -2 -12 -5 3 -13 0 -16 -6 -4 -5 -14 -8 -22
-5 -12 5 -14 1 -10 -14 5 -18 3 -19 -11 -8 -9 7 -14 8 -9 3 4 -4 0 -16 -9 -26
-8 -9 -16 -26 -17 -38 -1 -13 -6 -20 -15 -16 -7 3 -10 0 -7 -6 4 -5 1 -16 -5
-24 -6 -8 -9 -19 -5 -25 3 -5 2 -10 -2 -10 -5 0 -9 -15 -9 -32 0 -24 -4 -32
-14 -30 -12 3 -13 1 -2 -9 13 -15 17 -33 4 -25 -5 3 -9 -1 -9 -8 0 -8 7 -12
16 -9 13 4 13 2 -2 -10 -15 -12 -15 -16 -3 -26 17 -14 10 -44 -8 -34 -8 5 -8
3 0 -8 6 -8 10 -22 9 -31 -2 -10 2 -18 8 -18 7 0 5 -5 -3 -10 -8 -5 -10 -10
-3 -10 6 0 9 -9 5 -22 -3 -12 -1 -19 4 -15 5 3 10 -3 10 -14 0 -10 -3 -19 -7
-19 -10 0 -5 -27 6 -37 4 -4 5 -2 0 6 -5 9 -4 12 3 7 6 -4 9 -13 6 -21 -4 -8
-10 -12 -15 -9 -5 3 -6 -2 -3 -10 3 -9 11 -13 18 -9 8 5 8 3 0 -8 -17 -22 -24
-58 -10 -53 7 3 13 -2 13 -11 0 -8 -3 -15 -6 -15 -4 0 -7 -13 -7 -30 -1 -16 1
-30 5 -30 4 0 7 -11 7 -25 0 -14 -4 -25 -10 -25 -5 0 -1 -7 10 -15 18 -14 18
-15 0 -9 -16 6 -17 4 -7 -14 7 -14 8 -23 1 -27 -15 -9 -12 -27 3 -19 6 4 4 -2
-5 -13 -10 -11 -18 -24 -18 -29 0 -5 5 -2 10 6 8 13 10 12 10 -2 0 -10 -4 -18
-8 -18 -4 0 -8 -9 -9 -20 -1 -13 2 -18 10 -13 9 5 8 2 0 -9 -7 -8 -10 -18 -6
-21 3 -4 1 -7 -7 -7 -10 0 -10 -3 0 -15 10 -11 9 -18 -4 -30 -18 -19 -21 -29
-5 -19 8 5 8 1 0 -14 -14 -27 -14 -35 2 -26 6 5 -1 -9 -17 -31 -16 -21 -23
-35 -15 -30 12 7 12 6 1 -7 -10 -13 -10 -17 0 -21 8 -4 7 -6 -4 -6 -11 -1 -15
-6 -12 -16 4 -8 1 -22 -6 -30 -7 -8 -10 -22 -6 -30 3 -9 2 -13 -4 -10 -6 3
-10 1 -10 -5 0 -6 -4 -9 -8 -6 -5 3 -8 -5 -8 -17 1 -12 -4 -21 -10 -20 -6 1
-10 -9 -8 -22 1 -14 -2 -25 -8 -25 -6 0 -5 -6 2 -15 11 -13 10 -14 -5 -9 -14
6 -16 4 -10 -6 6 -10 4 -12 -8 -7 -11 4 -14 2 -11 -8 3 -8 9 -13 12 -12 4 1 8
-2 10 -8 1 -5 -3 -10 -10 -10 -6 0 -13 -7 -15 -15 -4 -13 -3 -13 6 0 8 11 11
12 11 2 0 -7 4 -10 10 -7 6 4 7 -1 3 -11 -5 -13 -3 -15 7 -9 10 6 12 4 7 -8
-4 -11 -2 -14 8 -10 8 3 13 8 11 12 -3 4 8 6 23 5 23 -1 28 2 24 17 -3 11 1
21 10 25 9 3 14 14 12 24 -2 12 1 17 10 14 7 -3 16 0 21 7 4 8 3 10 -4 5 -7
-4 -12 -1 -12 8 0 9 5 16 10 16 6 0 10 9 10 21 0 11 4 18 8 15 5 -3 9 1 9 9 0
8 -5 12 -10 8 -5 -3 -1 6 8 21 9 14 20 24 24 21 4 -2 8 2 8 10 0 8 -5 12 -11
9 -6 -3 -2 2 8 10 15 12 16 16 5 16 -12 0 -12 2 0 9 8 5 11 16 8 25 -4 9 -2
16 3 16 5 0 6 7 3 17 -5 12 -3 14 8 8 11 -7 11 -5 -1 10 -12 15 -12 17 -1 10
11 -6 13 -4 8 8 -4 12 -1 17 10 17 14 0 14 2 -3 15 -18 14 -18 14 4 10 21 -4
22 -2 10 12 -10 13 -10 17 0 20 6 3 12 9 12 14 0 4 -8 6 -17 2 -17 -5 -17 -5
0 8 20 16 30 56 16 64 -5 4 -5 14 2 27 6 11 9 29 6 39 -3 11 0 19 6 19 8 0 8
3 2 8 -15 11 -11 62 5 72 12 8 12 10 -3 10 -14 0 -16 4 -7 19 13 25 13 54 0
46 -5 -3 -8 0 -6 7 2 7 7 28 10 46 4 25 3 31 -7 26 -7 -5 -5 0 3 11 9 11 10
16 3 11 -7 -4 -13 -2 -13 3 0 6 5 11 10 11 6 0 10 5 10 11 0 5 -3 8 -7 6 -5
-3 -8 10 -8 29 0 19 3 34 7 34 4 0 8 5 8 11 0 5 -4 8 -9 4 -5 -3 -12 -1 -16 5
-3 5 -2 10 3 10 5 0 9 7 9 15 0 8 -4 15 -8 15 -5 0 -5 7 -2 17 4 10 2 14 -4
10 -5 -3 -10 0 -10 8 0 8 5 11 11 8 6 -3 5 0 -1 8 -15 15 -18 33 -5 25 16 -9
6 31 -11 48 -23 24 -21 29 6 15 18 -9 20 -9 10 2 -9 9 -10 16 -1 26 9 11 7 12
-8 7 -18 -7 -18 -6 -3 12 11 12 14 26 9 39 -5 13 -2 26 7 37 9 10 13 28 11 42
-3 14 -1 23 4 20 11 -7 38 21 38 41 0 8 6 18 14 21 9 3 12 12 9 21 -5 12 -3
14 8 8 12 -8 12 -6 0 9 -13 15 -13 19 0 27 11 7 10 9 -5 9 -11 0 -28 8 -39 18
-19 16 -20 16 -14 -1z m-108 -706 c3 -5 2 -12 -3 -15 -5 -3 -9 1 -9 9 0 17 3
19 12 6z"/>
<path d="M950 1619 c0 -5 5 -7 10 -4 6 3 10 8 10 11 0 2 -4 4 -10 4 -5 0 -10
-5 -10 -11z"/>
<path d="M1310 1563 c0 -10 -4 -14 -8 -8 -11 15 -55 18 -46 2 5 -7 0 -6 -11 3
-17 14 -18 13 -12 -4 7 -17 6 -17 -10 -5 -9 8 -14 9 -10 3 4 -7 0 -15 -9 -18
-22 -9 -26 -8 -18 5 3 6 -5 3 -20 -6 -31 -20 -35 -30 -6 -15 11 6 20 8 20 6 0
-3 -14 -13 -31 -22 -20 -10 -28 -11 -24 -3 5 8 4 10 -3 5 -7 -4 -12 -14 -12
-22 0 -8 -5 -14 -12 -14 -6 0 -8 -3 -5 -6 3 -4 -5 -15 -18 -26 -14 -11 -23
-23 -20 -28 3 -4 -2 -13 -9 -19 -10 -9 -12 -20 -6 -40 6 -21 4 -33 -9 -46 -9
-9 -11 -15 -6 -14 24 4 27 -2 9 -16 -12 -10 -13 -13 -3 -10 12 4 15 -1 13 -25
-1 -16 1 -30 5 -30 4 0 8 -7 8 -15 0 -8 -4 -12 -8 -9 -4 2 -10 0 -14 -6 -3 -5
1 -10 10 -10 9 0 13 -4 10 -10 -3 -5 0 -10 7 -11 7 0 4 -4 -7 -9 l-20 -9 20 0
c17 -1 17 -3 5 -11 -12 -8 -12 -10 5 -11 l20 0 -20 -9 c-11 -5 -15 -9 -9 -9 7
-1 14 -8 17 -15 4 -11 1 -13 -10 -9 -15 6 -15 5 0 -17 11 -17 13 -27 6 -36 -7
-8 -6 -15 2 -20 8 -5 9 -3 4 6 -5 8 -4 11 3 6 6 -4 9 -13 6 -21 -4 -8 -9 -13
-13 -11 -8 5 -7 -42 2 -50 3 -3 3 -13 0 -22 -4 -8 -2 -13 3 -9 5 3 10 -3 10
-13 0 -15 -3 -17 -15 -7 -13 10 -13 8 0 -13 15 -24 15 -55 0 -46 -4 3 -7 -4
-7 -14 0 -11 6 -16 16 -13 9 3 11 2 4 -4 -6 -4 -10 -20 -9 -35 1 -15 -2 -25
-7 -22 -4 3 -8 -2 -8 -11 0 -10 -5 -13 -12 -9 -7 4 -8 3 -4 -5 6 -9 11 -9 21
-1 9 8 12 4 9 -16 -1 -14 -6 -29 -10 -32 -4 -4 -4 2 0 13 6 16 5 18 -6 7 -10
-10 -10 -17 0 -32 10 -16 9 -18 -3 -14 -11 5 -12 0 -5 -25 5 -17 5 -29 0 -26
-13 8 -19 -32 -6 -45 8 -8 7 -10 -4 -5 -12 4 -15 -4 -14 -39 0 -25 -3 -43 -8
-40 -4 3 -8 -4 -8 -15 0 -28 -11 -52 -21 -45 -5 3 -9 -2 -9 -11 0 -9 5 -13 11
-10 6 4 5 -2 -2 -13 -7 -12 -18 -18 -24 -14 -5 3 -4 -2 4 -11 12 -15 11 -17
-5 -18 -12 0 -14 -3 -6 -6 10 -4 7 -12 -10 -31 -13 -14 -18 -22 -12 -19 7 4
14 -2 17 -13 4 -16 2 -18 -12 -11 -14 8 -17 5 -19 -15 -3 -47 -5 -53 -15 -47
-6 4 -8 -1 -4 -11 6 -14 3 -17 -9 -12 -13 5 -14 4 -6 -7 7 -8 9 -17 5 -21 -4
-3 -7 -15 -8 -26 -1 -15 1 -17 11 -9 10 8 12 6 9 -10 -3 -19 -1 -20 17 -10 13
7 18 7 14 1 -4 -6 2 -10 14 -9 13 1 19 6 15 16 -5 12 -3 12 12 0 11 -9 14 -10
9 -1 -4 7 -2 12 5 12 7 0 10 3 6 6 -3 4 4 15 16 25 12 10 16 18 10 19 -7 0
-13 -5 -13 -12 0 -6 -3 -8 -7 -4 -5 4 1 14 11 22 11 8 16 14 11 14 -5 0 0 7
11 16 10 8 13 13 7 9 -16 -8 -17 11 -2 20 6 4 8 14 5 22 -3 8 -1 11 4 8 6 -3
10 1 10 10 0 10 5 13 13 9 9 -6 9 -5 0 8 -11 12 -10 18 6 32 12 11 17 25 13
38 -3 13 -1 19 5 15 5 -3 10 0 10 8 0 8 -3 12 -7 10 -4 -2 -7 2 -7 9 0 8 6 12
14 9 9 -4 11 0 6 13 -5 13 -3 15 8 9 11 -7 11 -5 -1 10 -9 11 -10 16 -2 11 6
-4 12 -3 12 1 0 5 -6 15 -12 22 -11 10 -9 11 7 5 18 -7 19 -6 6 10 -11 13 -11
16 -1 14 7 -2 15 3 18 11 3 10 0 11 -9 5 -12 -7 -12 -5 -1 9 8 9 11 21 7 27
-3 5 -1 10 4 10 6 0 11 5 11 11 0 5 -6 7 -12 3 -10 -5 -10 -4 -1 6 6 7 9 19 6
28 -4 9 -2 13 4 9 5 -3 10 0 10 8 0 8 -5 15 -11 15 -6 0 -5 4 3 9 12 8 13 12
1 25 -11 14 -10 16 4 10 12 -5 15 -2 9 12 -4 10 -2 15 4 11 5 -3 10 0 10 8 0
8 -4 12 -9 9 -11 -7 -10 3 2 26 6 10 6 21 2 24 -5 3 -7 20 -6 38 2 47 3 50 14
43 6 -3 7 1 4 9 -3 9 -10 13 -15 10 -5 -3 -6 2 -3 10 3 9 9 14 13 12 4 -3 7 4
7 14 0 10 -5 16 -11 13 -7 -2 -12 3 -12 11 0 8 5 12 12 10 6 -3 11 4 11 15 0
10 -6 17 -12 14 -14 -5 -13 22 1 34 4 4 5 2 0 -6 -6 -10 -4 -12 4 -7 8 6 9 12
2 20 -6 7 -8 16 -4 19 3 4 1 7 -5 7 -7 0 -12 5 -12 11 0 5 4 8 9 4 5 -3 13 0
17 6 4 8 3 9 -4 5 -7 -4 -12 -2 -12 4 0 6 -5 8 -12 4 -7 -4 -8 -3 -4 5 4 6 11
9 16 6 5 -3 12 0 16 6 4 8 3 9 -4 5 -6 -3 -16 3 -22 15 -7 12 -8 19 -2 15 5
-3 13 1 16 10 3 8 2 13 -3 10 -11 -7 -24 41 -16 54 4 6 1 10 -5 10 -6 0 -8 5
-5 10 4 6 12 7 18 3 7 -3 4 3 -6 15 -11 11 -16 26 -12 31 3 6 0 11 -7 11 -9 0
-9 3 2 10 12 8 12 10 1 10 -11 0 -11 3 0 17 8 10 9 14 2 10 -9 -6 -10 0 -3 22
4 16 6 32 2 35 -3 3 0 6 7 6 7 0 11 7 8 14 -4 11 -1 13 10 9 10 -4 14 -2 9 5
-10 16 15 27 25 11 7 -10 8 -5 5 13 -3 15 0 31 6 34 7 4 8 2 4 -4 -9 -15 6
-16 21 -1 17 17 76 16 97 -1 17 -13 18 -13 12 0 -4 9 -2 8 7 -2 8 -10 23 -18
33 -19 12 0 14 -3 6 -6 -10 -4 -9 -9 4 -24 9 -10 21 -16 27 -12 6 3 7 1 3 -5
-4 -7 0 -12 11 -13 16 0 16 -1 -2 -9 -11 -5 -14 -9 -7 -9 6 -1 12 -13 12 -27
0 -17 4 -23 13 -18 8 5 8 2 -2 -9 -10 -13 -10 -17 -1 -17 10 0 10 -3 0 -15
-10 -12 -10 -15 0 -15 9 0 9 -4 -1 -17 -12 -15 -12 -16 5 -10 17 7 17 6 5 -10
-12 -15 -12 -16 6 -10 19 7 19 6 2 -7 -16 -13 -16 -14 -1 -20 9 -4 14 -9 11
-13 -4 -3 -1 -13 6 -22 10 -14 10 -14 -3 -4 -13 9 -15 7 -15 -17 -1 -16 2 -27
6 -24 11 6 17 -19 10 -39 -8 -23 -1 -88 8 -82 4 2 8 -2 8 -9 0 -8 -7 -12 -16
-9 -11 3 -10 0 3 -11 15 -12 16 -16 5 -16 -12 0 -12 -2 1 -10 14 -9 7 -14 -15
-11 -5 1 -2 -5 8 -13 10 -8 18 -17 18 -20 -3 -21 1 -26 12 -20 9 6 9 5 -1 -8
-10 -13 -9 -15 8 -14 12 0 25 8 30 16 7 10 10 11 10 3 0 -7 5 -13 11 -13 6 0
9 7 6 15 -4 8 -1 17 5 21 7 4 8 3 4 -4 -4 -7 -2 -12 3 -12 15 0 14 13 -1 29
-8 9 -8 11 -2 8 19 -11 24 19 7 44 -9 12 -11 19 -5 15 7 -4 12 -2 12 3 0 6 -6
11 -12 11 -9 0 -8 4 2 10 11 7 11 10 2 10 -7 0 -10 4 -7 10 3 5 1 20 -5 32
-10 22 -10 22 4 4 14 -18 15 -18 13 3 -1 11 -6 21 -12 21 -5 0 -3 5 5 10 8 5
10 10 4 10 -7 0 -14 11 -16 25 -4 21 -3 23 9 14 11 -9 12 -8 7 5 -3 9 -14 16
-23 16 -13 0 -14 2 -2 9 8 5 15 19 16 30 1 16 -1 18 -12 10 -16 -14 -17 3 -1
19 9 9 9 12 -2 12 -13 0 -13 2 0 10 9 6 11 10 3 10 -7 0 -10 7 -6 17 4 10 2
14 -4 10 -5 -3 -10 0 -10 8 0 8 4 12 9 9 11 -7 10 7 -2 26 -5 9 -5 19 2 27 8
10 7 12 -5 8 -8 -4 -18 -1 -22 5 -3 6 -3 10 2 9 22 -4 25 3 7 17 -10 8 -12 13
-4 9 10 -4 10 -2 -2 8 -14 11 -15 16 -5 27 10 10 9 11 -2 5 -11 -6 -13 -4 -8
8 4 11 2 14 -8 11 -10 -4 -13 0 -10 16 4 19 2 20 -12 8 -13 -10 -15 -10 -9 0
10 17 -38 67 -55 56 -8 -4 -9 -3 -5 4 5 8 -2 12 -19 12 -15 0 -24 4 -20 10 3
6 -3 10 -15 10 -14 0 -19 4 -14 13 5 9 4 9 -6 0 -14 -13 -43 -6 -34 8 3 5 0 9
-5 9 -6 0 -11 -8 -11 -17z m-233 -148 c0 -8 -4 -12 -9 -9 -5 3 -6 10 -3 15 9
13 12 11 12 -6z m-12 -35 c-3 -5 -11 -10 -16 -10 -6 0 -7 5 -4 10 3 6 11 10
16 10 6 0 7 -4 4 -10z"/>
<path d="M1891 1553 c-1 -13 -6 -23 -12 -23 -5 0 -8 4 -4 9 3 5 1 13 -5 16 -6
4 -10 3 -9 -2 4 -26 -2 -44 -13 -37 -8 5 -8 2 1 -10 11 -13 11 -16 1 -14 -7 2
-15 -3 -17 -9 -3 -7 1 -13 9 -13 10 0 9 -3 -2 -10 -13 -8 -12 -10 3 -10 9 0
17 -5 17 -11 0 -5 -6 -7 -12 -4 -7 4 -5 0 5 -8 18 -15 24 -32 7 -22 -5 3 -10
1 -10 -4 0 -6 5 -11 11 -11 6 0 9 -7 5 -15 -3 -8 0 -15 7 -15 8 0 8 -3 -2 -9
-11 -7 -11 -9 0 -14 8 -3 9 -6 2 -6 -6 -1 -9 -10 -6 -21 3 -11 10 -17 17 -13
6 4 5 0 -2 -9 -8 -10 -9 -19 -3 -22 11 -7 9 -25 -3 -45 -7 -11 -5 -13 10 -7
14 5 16 4 8 -4 -13 -13 -6 -63 7 -54 5 3 6 -2 3 -10 -3 -9 -11 -13 -16 -10 -6
4 -7 0 -1 -12 5 -11 9 -33 8 -51 -1 -18 3 -29 8 -26 5 3 6 -4 2 -17 -5 -16 -4
-20 5 -15 7 4 5 -4 -5 -18 -14 -22 -14 -27 -2 -38 12 -12 12 -16 -2 -27 -9 -7
-10 -11 -3 -7 11 5 14 -1 11 -21 0 -4 5 -11 13 -15 10 -7 10 -9 0 -9 -7 0 -11
-4 -7 -9 3 -5 1 -12 -5 -16 -13 -8 -13 -25 1 -25 5 0 7 5 3 12 -5 7 -3 8 6 3
11 -7 9 -12 -8 -23 -23 -15 -29 -32 -11 -32 5 0 7 5 3 12 -4 7 -3 8 4 4 12 -7
6 -31 -12 -55 -9 -12 -8 -13 3 -6 11 6 13 4 7 -11 -14 -34 -16 -63 -6 -69 6
-4 3 -16 -8 -33 -9 -14 -12 -23 -6 -19 7 4 15 0 18 -9 3 -8 2 -13 -2 -10 -4 3
-14 -4 -21 -16 -7 -11 -8 -18 -3 -14 5 3 9 -8 9 -24 0 -17 -3 -30 -7 -30 -4 0
-7 -20 -6 -45 1 -33 -3 -45 -13 -45 -11 0 -10 -4 5 -16 10 -8 14 -13 7 -10 -6
4 -14 2 -18 -4 -3 -5 -1 -10 5 -10 6 0 8 -5 5 -10 -4 -6 -12 -7 -18 -3 -7 4
-6 0 2 -10 11 -14 11 -17 0 -17 -9 0 -10 -3 -4 -8 6 -4 11 -13 13 -21 3 -12 1
-12 -15 -1 -10 8 -15 10 -10 5 4 -4 0 -16 -9 -26 -12 -13 -12 -19 -3 -25 7 -4
10 -3 5 4 -3 6 -3 13 2 16 4 2 8 -6 8 -19 0 -13 -4 -21 -10 -18 -5 4 -7 -1 -3
-12 4 -9 2 -24 -4 -31 -9 -11 -7 -14 7 -14 16 0 16 -2 4 -10 -12 -8 -12 -10 3
-16 9 -3 17 -10 17 -16 0 -5 -5 -6 -12 -2 -7 4 -8 3 -4 -4 10 -17 36 -3 28 16
-5 15 -4 15 12 0 19 -19 41 -25 31 -8 -3 6 -1 10 5 10 6 0 9 4 5 9 -3 5 0 13
6 17 7 4 9 3 5 -4 -3 -6 -2 -13 3 -16 5 -4 7 7 5 23 -3 16 0 32 5 35 6 4 7 14
4 23 -5 12 -3 14 8 8 11 -6 11 -5 2 5 -7 8 -8 22 -3 40 5 16 5 32 2 36 -4 4 1
4 11 1 10 -4 16 -3 12 2 -3 5 -2 11 2 14 5 2 3 3 -3 1 -12 -2 -12 32 1 43 4 5
5 3 1 -4 -3 -6 -2 -14 3 -17 5 -4 8 2 6 11 -1 10 2 24 8 31 7 9 5 11 -9 6 -16
-6 -17 -5 -6 7 6 7 12 27 12 44 0 16 4 37 10 45 5 9 5 19 -2 27 -8 10 -7 13 3
13 11 0 11 2 -1 10 -8 5 -10 10 -5 10 6 0 11 13 11 30 1 19 -2 28 -10 24 -6
-3 -4 0 5 8 11 9 13 21 8 41 -6 21 -4 27 9 28 11 0 13 2 4 6 -10 4 -10 8 0 21
11 13 11 15 -3 10 -11 -4 -15 0 -14 13 1 10 5 22 10 26 4 5 5 3 2 -3 -3 -6 0
-11 8 -11 12 0 12 3 3 15 -18 21 -19 45 -2 38 11 -4 12 -2 5 13 -6 10 -7 22
-3 26 4 5 1 5 -5 1 -14 -8 -18 10 -5 18 4 2 7 20 6 38 -3 49 -3 50 -16 42 -10
-6 -10 -5 -1 8 7 8 10 18 6 22 -9 9 -11 46 -2 41 4 -3 9 2 13 10 3 8 0 17 -6
21 -7 5 -8 2 -3 -7 5 -8 4 -11 0 -6 -5 4 -8 26 -6 49 2 31 0 38 -11 32 -10 -6
-9 -3 1 10 13 15 13 19 0 27 -12 7 -12 9 1 9 12 0 13 2 1 9 -11 7 -11 9 0 14
12 5 12 6 0 6 -11 1 -11 4 0 18 12 14 12 16 0 9 -9 -6 -12 -5 -9 5 3 8 1 22
-4 32 -6 11 -5 17 3 17 8 0 8 4 -1 15 -6 8 -9 19 -5 25 3 5 1 10 -4 10 -12 0
-11 22 2 31 10 7 -2 41 -13 34 -4 -2 -5 7 -2 20 3 17 0 25 -9 25 -11 0 -11 2
1 10 13 8 13 10 -1 10 -11 0 -15 8 -14 25 2 14 -2 28 -7 32 -7 4 -8 1 -3 -7 5
-8 4 -11 -3 -6 -6 4 -9 13 -5 21 3 9 -1 15 -10 15 -8 0 -18 6 -20 13 -3 6 -6
2 -6 -10z m26 -578 c0 -8 -4 -12 -9 -9 -5 3 -6 10 -3 15 9 13 12 11 12 -6z"/>
<path d="M2380 1440 c0 -5 5 -10 11 -10 5 0 7 5 4 10 -3 6 -8 10 -11 10 -2 0
-4 -4 -4 -10z"/>
<path d="M1291 1351 c-8 -5 -11 -13 -7 -19 3 -6 -2 -8 -13 -5 -10 3 -22 -1
-26 -8 -5 -8 -4 -10 3 -5 15 9 15 1 2 -25 -8 -15 -7 -19 4 -19 8 0 13 -9 12
-24 0 -13 -4 -22 -8 -19 -5 2 -8 -1 -8 -6 0 -6 5 -11 11 -11 5 0 7 -4 4 -10
-3 -5 -1 -10 6 -10 7 0 5 -6 -6 -13 -14 -11 -15 -16 -5 -22 9 -6 11 -4 5 6 -5
8 -4 10 0 6 12 -10 15 -38 4 -31 -5 3 -5 -6 1 -20 5 -14 7 -26 3 -26 -3 0 2
-10 13 -22 14 -17 15 -19 2 -10 -15 12 -17 11 -15 -7 1 -12 4 -21 7 -21 4 0 7
-7 7 -15 0 -10 -6 -14 -16 -10 -13 4 -12 2 2 -9 20 -15 23 -31 5 -20 -10 6
-10 4 0 -7 14 -15 17 -33 4 -25 -5 3 -9 -1 -9 -9 0 -8 4 -12 7 -10 4 3 8 -6 8
-20 0 -14 -4 -23 -8 -20 -3 2 -7 -2 -7 -10 0 -8 4 -12 8 -10 15 10 18 -25 3
-40 -12 -11 -12 -15 -2 -15 10 0 9 -3 -2 -10 -13 -9 -13 -10 0 -10 13 0 13 -1
0 -10 -14 -9 -7 -14 13 -11 4 1 0 -10 -9 -24 -13 -20 -13 -25 -3 -25 11 0 11
-2 -1 -10 -13 -9 -13 -11 0 -20 8 -5 10 -10 4 -10 -7 0 -14 -9 -17 -20 -3 -11
-2 -18 2 -15 4 2 8 -2 8 -10 0 -8 -4 -12 -9 -9 -5 3 -6 -6 -2 -21 4 -18 2 -30
-7 -35 -10 -7 -10 -11 0 -23 9 -12 9 -17 0 -23 -8 -4 -9 -3 -5 4 11 18 0 14
-15 -5 -10 -11 -10 -14 -1 -9 14 8 12 -28 -3 -41 -4 -5 -5 -2 0 6 5 9 4 12 -3
7 -6 -4 -9 -13 -6 -21 4 -8 11 -12 17 -8 6 4 7 1 1 -8 -14 -23 -13 -39 2 -39
9 0 13 -4 10 -9 -3 -5 1 -12 10 -15 8 -3 13 -10 10 -14 -3 -5 1 -9 8 -9 8 0
12 6 9 14 -3 7 -10 13 -16 13 -6 0 -7 3 -4 6 4 4 12 2 20 -4 17 -15 42 1 34
23 -5 10 -3 14 5 9 7 -5 9 0 6 14 -4 14 -2 19 6 16 7 -3 13 2 13 10 0 8 -4 13
-9 10 -4 -3 -8 0 -8 5 0 10 14 15 33 12 5 -1 6 3 2 9 -3 6 -10 8 -15 5 -11 -7
-7 22 5 32 4 4 5 2 0 -6 -6 -10 -4 -12 4 -7 9 6 9 11 1 21 -8 9 -6 17 5 29 11
10 12 16 4 16 -8 0 -9 4 0 13 7 9 7 17 0 24 -12 12 -2 43 15 43 6 0 4 5 -4 10
-8 5 -10 10 -4 10 6 0 9 12 6 29 -2 16 1 32 7 35 7 5 5 16 -7 34 -9 14 -12 23
-5 19 6 -4 14 -3 17 2 4 5 2 12 -3 15 -10 7 -9 25 2 43 4 6 3 14 -1 17 -5 3
-7 18 -4 32 3 19 1 25 -7 20 -6 -4 -11 -2 -11 3 0 6 4 11 8 11 11 0 9 51 -3
69 -6 10 -4 12 6 6 12 -8 12 -6 0 8 -7 9 -9 17 -3 17 15 0 9 34 -8 42 -12 5
-11 7 4 7 19 1 19 1 1 14 -12 10 -14 16 -7 21 7 4 12 15 12 24 0 15 -2 15 -11
2 -9 -12 -10 -11 -4 5 14 40 13 66 -2 61 -10 -4 -11 -1 -3 14 7 13 7 21 -2 26
-7 5 -8 3 -3 -6 5 -9 4 -11 -4 -6 -9 6 -9 11 0 22 9 11 8 14 -2 14 -11 0 -11
2 1 10 13 8 12 10 -3 10 -11 0 -15 4 -11 12 5 7 2 9 -9 5 -9 -3 -21 1 -29 11
-12 15 -11 16 4 4 13 -11 18 -11 24 0 4 7 4 10 -1 6 -4 -4 -13 -4 -19 2 -7 5
-18 5 -25 1z"/>
<path d="M186 1298 c3 -5 10 -6 15 -3 13 9 11 12 -6 12 -8 0 -12 -4 -9 -9z"/>
<path d="M110 1220 c0 -5 5 -10 11 -10 5 0 7 5 4 10 -3 6 -8 10 -11 10 -2 0
-4 -4 -4 -10z"/>
<path d="M626 1122 c-3 -5 1 -9 9 -9 8 0 12 4 9 9 -3 4 -7 8 -9 8 -2 0 -6 -4
-9 -8z"/>
<path d="M2404 978 c4 -14 1 -16 -19 -8 -18 7 -25 5 -29 -7 -5 -12 -9 -13 -20
-4 -12 10 -13 8 -9 -10 4 -13 2 -20 -4 -16 -12 7 -11 -23 2 -42 5 -9 4 -12 -3
-7 -6 3 -14 1 -18 -5 -4 -8 -3 -9 4 -5 7 4 12 2 12 -4 0 -6 6 -8 13 -5 6 4 3
-1 -8 -10 -15 -13 -17 -18 -6 -22 11 -5 11 -7 0 -14 -12 -7 -12 -9 0 -9 11 0
10 -4 -4 -13 -14 -11 -15 -16 -5 -22 9 -5 11 -4 6 3 -4 7 -2 12 3 12 14 0 14
-17 0 -26 -8 -4 -7 -9 2 -15 9 -5 9 -9 3 -9 -7 0 -14 -9 -17 -19 -4 -15 -1
-18 12 -13 14 5 14 4 2 -11 -11 -14 -11 -17 0 -17 11 0 11 -2 1 -8 -27 -17 4
-49 41 -43 5 1 6 -3 2 -8 -3 -6 -13 -7 -23 -4 -9 3 -14 3 -10 -2 13 -14 62
-11 76 5 12 13 13 13 6 0 -4 -9 -3 -12 2 -7 5 5 7 9 5 10 -2 1 2 13 9 27 11
21 11 23 -1 13 -12 -9 -14 -6 -13 18 0 16 4 32 9 37 5 4 5 0 0 -8 -5 -8 -5
-12 0 -8 10 10 11 200 1 217 -4 6 -2 11 4 11 6 0 8 5 5 10 -4 6 -11 7 -17 4
-7 -4 -8 -2 -4 4 4 7 2 20 -4 29 -10 16 -11 16 -6 1z m24 -223 c-3 -3 -9 2
-12 12 -6 14 -5 15 5 6 7 -7 10 -15 7 -18z"/>
<path d="M1899 908 c-6 -20 -6 -39 0 -42 4 -3 7 6 7 20 0 20 -4 32 -7 22z"/>
<path d="M433 805 c0 -8 4 -12 9 -9 5 3 6 10 3 15 -9 13 -12 11 -12 -6z"/>
<path d="M1180 800 c0 -5 5 -10 11 -10 5 0 7 5 4 10 -3 6 -8 10 -11 10 -2 0
-4 -4 -4 -10z"/>
<path d="M1050 759 c0 -5 5 -7 10 -4 6 3 10 8 10 11 0 2 -4 4 -10 4 -5 0 -10
-5 -10 -11z"/>
<path d="M1525 720 c7 -12 -30 -31 -41 -22 -5 4 -2 -1 5 -10 12 -16 11 -18 -5
-19 -12 0 -14 -3 -6 -6 10 -4 10 -8 0 -21 -10 -12 -10 -14 0 -8 6 4 12 5 12 1
0 -3 -10 -10 -22 -15 -15 -5 -17 -9 -7 -9 9 -1 16 -8 16 -16 0 -8 -4 -12 -9
-9 -9 6 -9 4 -13 -42 -1 -17 -6 -37 -10 -44 -6 -9 -4 -11 5 -5 9 6 10 2 4 -16
-4 -13 -8 -33 -9 -44 -2 -11 -7 -19 -13 -18 -8 2 -9 -5 -1 -24 9 -24 8 -25 -8
-12 -12 10 -15 11 -9 1 5 -8 1 -21 -9 -32 -12 -14 -13 -20 -4 -26 8 -5 10 -3
4 6 -6 9 -4 11 5 5 10 -6 9 -11 -6 -22 -15 -11 -16 -16 -6 -22 11 -7 11 -9 -2
-14 -9 -4 -13 -13 -10 -21 3 -8 0 -17 -6 -21 -8 -5 -7 -11 2 -23 11 -13 11
-14 -1 -7 -10 6 -13 4 -9 -7 3 -8 -2 -19 -11 -25 -12 -7 -17 -22 -16 -42 1
-17 -2 -28 -8 -24 -5 3 -6 -3 -2 -16 4 -13 2 -21 -6 -21 -8 0 -8 -5 2 -17 12
-14 12 -15 1 -9 -11 7 -12 4 -3 -12 8 -15 8 -22 -2 -26 -6 -3 17 -5 52 -4 58
1 62 3 45 16 -18 14 -18 14 4 9 13 -3 21 -3 18 0 -3 4 -1 12 5 19 7 8 6 14 -2
20 -7 4 -9 3 -5 -4 3 -6 2 -13 -3 -16 -5 -4 -8 2 -7 11 2 9 8 19 15 21 9 3 9
7 0 19 -10 11 -10 13 1 11 7 -2 15 3 18 11 3 9 0 11 -8 6 -9 -6 -9 -3 -1 14 7
11 14 21 17 21 3 0 2 -5 -2 -12 -4 -7 -3 -8 5 -4 9 6 9 11 -1 24 -10 12 -10
14 0 8 7 -4 12 -1 13 8 1 9 3 21 4 26 1 6 3 15 4 21 0 5 7 7 14 3 9 -6 9 -4
-1 8 -10 13 -10 17 4 22 13 5 14 9 4 21 -10 12 -10 15 1 15 11 0 11 2 -1 10
-12 8 -12 10 3 16 9 3 17 10 17 16 0 5 -4 7 -8 4 -5 -3 -9 1 -9 9 0 8 4 12 8
9 4 -2 10 0 14 6 3 5 1 10 -5 10 -6 0 -8 5 -5 10 4 6 11 8 16 5 5 -3 6 2 2 11
-5 13 -3 15 7 9 10 -6 11 -4 4 6 -14 23 -14 41 1 35 11 -4 12 0 5 19 -7 18 -6
25 3 25 8 0 7 4 -3 10 -13 8 -12 10 4 10 20 0 20 0 0 16 -10 8 -13 13 -6 9 12
-6 17 11 14 48 -1 12 3 16 11 12 6 -4 3 1 -7 9 -18 15 -18 16 -2 16 9 0 14 5
11 10 -4 6 -11 8 -16 5 -5 -3 -6 1 -3 9 3 9 10 13 15 10 5 -3 6 2 3 10 -3 9
-10 13 -15 10 -5 -3 -6 1 -3 9 3 8 -3 18 -13 22 -28 12 -44 14 -38 5z m-50
-159 c3 -5 2 -12 -3 -15 -5 -3 -9 1 -9 9 0 17 3 19 12 6z m-41 -209 c3 -5 -1
-9 -9 -9 -8 0 -12 4 -9 9 3 4 7 8 9 8 2 0 6 -4 9 -8z m-59 -192 c-3 -5 -12
-10 -18 -10 -7 0 -6 4 3 10 19 12 23 12 15 0z"/>
<path d="M650 601 c0 -7 -6 -11 -15 -7 -8 3 -14 2 -14 -2 4 -25 -3 -42 -18
-43 -11 0 -13 -3 -6 -6 9 -3 10 -10 3 -24 -6 -10 -7 -19 -3 -19 4 0 -2 -7 -13
-16 -19 -15 -19 -16 1 -10 19 6 19 5 3 -8 -10 -7 -18 -19 -18 -25 0 -7 -5 -9
-12 -5 -10 6 -10 4 0 -8 11 -14 10 -18 -8 -28 -11 -6 -18 -15 -14 -21 3 -5 0
-17 -7 -25 -10 -12 -9 -14 7 -9 13 4 12 2 -3 -6 -13 -7 -23 -17 -24 -23 0 -6
-2 -19 -4 -29 -2 -12 5 -22 21 -29 13 -6 24 -15 24 -19 0 -4 8 -6 18 -4 9 1
16 8 14 14 -2 9 4 9 20 0 21 -11 22 -11 9 4 -9 11 -10 17 -2 17 6 0 11 7 11
16 0 8 4 13 9 10 5 -3 8 2 7 12 0 9 4 16 10 15 7 -1 10 10 9 28 -2 21 3 33 17
40 14 8 17 14 10 21 -8 8 -6 18 5 34 8 13 11 24 7 24 -5 0 2 10 16 21 14 11
19 18 13 14 -8 -4 -13 0 -13 10 0 10 5 14 13 9 9 -5 9 -4 0 6 -10 11 -9 16 5
27 16 12 16 13 -1 7 -14 -5 -18 -2 -15 11 2 10 -4 20 -12 22 -13 4 -13 3 0 -6
9 -7 11 -11 3 -11 -7 0 -17 8 -22 18 -8 13 -10 14 -11 2 0 -13 -1 -13 -10 0
-7 12 -10 12 -10 1z m-120 -322 c0 -5 -4 -9 -8 -9 -5 0 -9 7 -9 15 0 8 4 12 9
9 4 -3 8 -9 8 -15z"/>
<path d="M363 525 c0 -8 4 -12 9 -9 5 3 6 10 3 15 -9 13 -12 11 -12 -6z"/>
<path d="M1212 293 c-6 -3 -9 -10 -5 -16 4 -6 0 -8 -10 -4 -12 4 -15 1 -12
-15 3 -13 -2 -22 -14 -25 -13 -3 -17 -11 -14 -24 3 -11 0 -19 -6 -19 -7 0 -9
5 -5 12 4 7 3 8 -5 4 -6 -4 -8 -13 -4 -19 11 -18 12 -38 2 -31 -5 3 -9 -2 -9
-10 0 -9 -5 -16 -11 -16 -6 0 -9 -9 -6 -20 3 -11 0 -23 -5 -27 -7 -4 -8 -1 -3
8 5 8 4 10 0 6 -15 -13 -15 -39 0 -33 8 3 17 0 21 -6 4 -7 3 -8 -4 -4 -8 5
-12 0 -12 -13 0 -34 3 -36 52 -36 29 -1 44 3 39 8 -13 13 -2 39 13 30 7 -5 7
-2 -1 8 -14 17 -1 45 15 35 7 -4 9 1 7 14 -2 11 0 20 5 20 5 0 7 9 5 19 -2 10
4 27 14 38 10 10 16 24 13 31 -2 6 2 12 9 12 8 0 5 6 -7 16 -10 8 -13 13 -7 9
9 -4 11 -1 7 9 -3 9 -10 14 -14 11 -4 -3 -7 3 -6 11 1 17 -19 25 -42 17z m38
-9 c0 -8 -19 -13 -24 -6 -3 5 1 9 9 9 8 0 15 -2 15 -3z m-100 -269 c0 -2 -9
-3 -19 -2 -11 0 -18 5 -15 9 4 6 34 0 34 -7z"/>
<path d="M1260 165 c-7 -9 -8 -15 -2 -15 5 0 12 7 16 15 3 8 4 15 2 15 -2 0
-9 -7 -16 -15z"/>
</g>
</svg>
